<?xml version="1.0" encoding="utf-8"?>
<!-- Generator: Adobe Illustrator 22.1.0, SVG Export Plug-In . SVG Version: 6.00 Build 0)  -->
<svg version="1.1" id="Layer_1" xmlns="http://www.w3.org/2000/svg" xmlns:xlink="http://www.w3.org/1999/xlink" x="0px" y="0px"
	 viewBox="0 0 318.7 298.4" style="enable-background:new 0 0 318.7 298.4;" xml:space="preserve">
<style type="text/css">
	.st0{fill:#FFFFFF;stroke:#000000;stroke-miterlimit:10;}
	.st1{opacity:0.8;}
	.st2{fill:#808285;}
	.st3{fill:#4D4D4F;}
	.st4{fill:#171717;}
	.st5{fill:#040404;}
	.st6{fill:#939598;}
	.st7{fill:#363537;}
	.st8{fill:#404041;}
	.st9{fill:#6D6E70;}
	.st10{fill:#1A1A1A;}
	.st11{fill:#242425;}
	.st12{opacity:0.8;fill:#808285;}
	.st13{fill:#454547;}
	.st14{fill:#2D2D2E;}
	.st15{fill:#4F5052;}
	.st16{fill:#2F2F30;}
	.st17{fill:#222222;}
	.st18{fill:#101011;}
	.st19{fill:#58595B;}
	.st20{fill:#141414;}
	.st21{opacity:0.9;}
	.st22{fill:#A5A7AA;}
	.st23{fill:#C2C4C6;}
	.st24{fill:#CFD1D2;}
	.st25{fill:#C9CACC;}
	.st26{fill:#AFB1B4;}
	.st27{fill:#B3B5B8;}
	.st28{fill:#8D9092;}
	.st29{fill:#97999C;}
	.st30{fill:#9D9FA2;}
	.st31{fill:#E2E3E4;}
	.st32{fill:#DCDDDE;}
</style>
<circle id="Circle_1_" class="st0" cx="162.3" cy="142.9" r="125.5"/>
<g id="Outline">
	<g>
		<g>
			<g class="st1">
				<path class="st2" d="M181.4,18c-2.9-2.9-4.7-5.8-5.5-8.5c-1.6-1-3.2-2.1-4.8-3.2c3.5,1.8,7.2,3.3,11,4.5
					c5.2,1.5,10.9,2.6,16.8,3c1.5,0.1,2.9,0.2,4.6,0.2c1.7,0,3.5,0.1,5.2,0.1c3.7,0.1,7.9,0.3,12.3,1.4c2.2,0.5,4.5,1.3,6.4,2.2
					c2,0.9,3.8,1.9,5.5,2.9c3.4,2.1,6.1,4.2,8.7,6.5c5.2,4.4,9.4,9.1,12.6,13.5c-1-1.2-2.2-2.4-3.4-3.7c-1.2-1.2-2.5-2.5-3.9-3.7
					c-2.7-2.5-5.7-4.9-8.7-7c-2-1.4-4.1-2.8-6.3-4c-2.2-1.2-4.4-2.3-6.7-3.1c-2.3-0.8-4.5-1.4-6.4-1.7c0.8,0.1,1.6,0.1,2.3,0.3
					c-6-0.9-11.2-0.2-15.8,0.4c-2.3,0.1-4.5,0.1-6.5,0c-2.1-0.1-4.2-0.2-6.3-0.4c2.1,0.2,4.2,0.3,6.3,0.4c2.1,0,4.2,0,6.5,0
					c-2.2,0.2-4.2,0.5-6.1,0.6c-2,0.1-4,0.2-6,0.2C189.5,18.8,185.4,18.6,181.4,18"/>
				<path class="st2" d="M140.9,280.9l0.6,0.1c-1.2,0.1-2.4,0-3.6,0c-14-1.6-27.7-5.4-39.9-10.5c-1.9-0.7-3.7-1.7-5.5-2.6
					c-1.8-0.9-3.7-1.8-5.5-2.9c-3.5-2.2-7.2-4.2-10.6-6.8c-0.9-0.6-1.7-1.3-2.6-1.9c-0.9-0.6-1.7-1.3-2.5-2
					c-1.6-1.4-3.3-2.8-4.9-4.3l-1.2-1.1l-1.2-1.2c-0.8-0.8-1.6-1.6-2.3-2.4c-1.5-1.6-3.1-3.2-4.6-4.9c-2.3-2.7-4.5-5.4-6.6-8.3
					c2.3,2.7,4.8,5.3,7.3,7.8c1.2,1.3,2.6,2.5,4,3.7l4,3.6c0.5,0.5,1,1,1.5,1.4c11.2,10.3,23.3,17.3,35.5,22.3l2.3,1l2.3,0.8
					c1.6,0.5,3.1,1.1,4.6,1.6c1.5,0.6,3.1,1,4.7,1.4c1.6,0.4,3.1,0.9,4.7,1.3c0.8,0.2,1.6,0.4,2.4,0.6l2.4,0.5
					c1.6,0.3,3.2,0.7,4.8,1C134.3,279.9,137.5,280.5,140.9,280.9"/>
				<path class="st3" d="M48,236.7c-5.4-6.4-10.2-13.4-14.6-20.5c-2.2-3.6-4.3-7.2-6.3-10.8c-2-3.6-3.9-7.2-5.8-10.9l0.8-0.4
					c2.1,4.2,4.3,8.2,6.6,12.4c2.4,4.2,4.9,8.5,7.5,12.9c1.5,2.4,2.9,4.8,4.4,7.3l-0.9-1.8C42.3,228.9,45,232.8,48,236.7"/>
				<path class="st3" d="M29.5,205.6c-2.4-4.2-4.7-8.3-7-12.8l-0.7-1.9C24.3,196.1,26.8,200.7,29.5,205.6"/>
				<polyline class="st3" points="146.7,263.7 150.2,264.4 145.9,263.7 146.7,263.7 				"/>
				<path class="st3" d="M54.4,180.7c0.7,1.9,1.5,3.8,2.3,5.7C55.9,184.6,55.1,182.6,54.4,180.7"/>
				<polyline class="st3" points="56.6,186.5 57,187.2 56.6,186.5 				"/>
				<polyline class="st3" points="24.9,101.3 23.7,103.6 22.5,105.9 23.7,103.6 24.9,101.3 				"/>
				<polyline class="st3" points="43.9,158.8 44,160.3 43.9,158.8 				"/>
				<path class="st3" d="M296.8,190.5c1.8-4,3.2-8.2,4.3-12.3C300,182.3,298.5,186.5,296.8,190.5"/>
				<path class="st3" d="M150.2,264.4c2.3,0.4,4.6,0.7,6.9,1.1C154.8,265.1,152.5,264.8,150.2,264.4"/>
				<path class="st3" d="M18.3,113.4c-0.7,2.4-1.5,4.7-2.1,7.1c0.5-2.1,1.1-4.1,1.8-6.1L18.3,113.4"/>
				<path class="st3" d="M29.4,93.2c-0.8,1.3-1.5,2.7-2.3,4c-0.8,1.3-1.5,2.7-2.2,4.1l1.4-2.8l1.5-2.7C28.3,94.9,28.8,94,29.4,93.2"
					/>
				<path class="st3" d="M13.9,158.4l-0.3-1.5l-0.2-1.5l-0.4-3c-0.3-2-0.4-4-0.6-6.1c0-0.7,0.1-1.5,0.1-2.2c0,0.7-0.1,1.5-0.1,2.2
					c0-0.7,0.1-1.5,0.1-2.2l0.1,0c0,1.2,0,2.4,0.1,3.6l0.2,3.6l0.4,3.6C13.5,156,13.7,157.2,13.9,158.4"/>
				<path class="st3" d="M23.8,100.8c-2.1,4-3.9,8.2-5.6,12.5c-0.7,2.4-1.5,4.7-2.1,7.1c0.5-2.1,1.1-4.1,1.8-6.1
					c-2.3,6.5-4.2,13.6-5.2,21.2c-1,7.6-1.2,15.7-0.1,24.1l0.8,2.1c-1.2-7.4-1.6-14.9-1.1-22.2c0,2.2,0,4.4,0.1,6.6
					c0-0.7,0.1-1.5,0.1-2.2c0.1-1.5,0.1-2.9,0.2-4.4c-0.1,1.5-0.1,2.9-0.1,4.4c0.4-7.3,1.5-14.5,3.2-21.4c-0.4,1.4-0.7,2.8-1.1,4.2
					l-0.5,2.1l-0.4,2.1c0.3-1.8,0.7-3.5,1.2-5.3c0.4-1.8,0.9-3.5,1.4-5.2l-0.5,2.1c0.5-1.5,0.9-3.1,1.4-4.6l1.6-4.5
					C20.4,109.2,21.9,105,23.8,100.8 M16.3,120.6l0.5-2.1L16.3,120.6"/>
				<path class="st4" d="M17.9,114.4c-0.6,2-1.3,4.1-1.8,6.1C16.6,118.4,17.3,116.4,17.9,114.4"/>
				<path class="st4" d="M12.5,144.1c0,0.7-0.1,1.5-0.1,2.2C12.4,145.5,12.5,144.8,12.5,144.1"/>
				<path class="st3" d="M37.4,80.1c-1,1.3-2,2.8-2.9,4.1c-0.7,1-1.3,2-2,3c-0.6,1-1.3,2-1.9,3.1c-3.9,6.1-7.2,12.6-10,19.4
					c-0.6,1.3-1.1,2.6-1.7,3.9c1.4-4.3,3-8.6,4.9-12.7l1.5-2.8l1.6-2.7c1-1.8,2.2-3.6,3.3-5.3c1.1-1.8,2.4-3.4,3.5-5.1
					C34.9,83.3,36.1,81.7,37.4,80.1"/>
				<path class="st3" d="M12.7,139.7c-0.1,1.5-0.1,2.9-0.1,4.4l-0.1,0C12.6,142.6,12.6,141.1,12.7,139.7"/>
				<path class="st4" d="M12.7,139.7c-0.1,1.5-0.1,2.9-0.1,4.4C12.6,142.6,12.6,141.1,12.7,139.7"/>
				<path class="st3" d="M38.7,78.5c-0.8,1.1-1.6,2.1-2.3,3.2l-1.9,2.5c1-1.4,1.9-2.8,2.9-4.1L38.7,78.5"/>
				<polyline class="st3" points="36.9,81 36.4,81.7 36.9,81 				"/>
				<path class="st3" d="M35.4,83.2c-2.1,3.2-4.1,6.5-6,10c1-1.8,1.9-3.7,3-5.4C33.4,86.2,34.3,84.7,35.4,83.2"/>
				<path class="st4" d="M12.5,144.1c0,0.7-0.1,1.5-0.1,2.2C12.4,145.5,12.5,144.8,12.5,144.1"/>
				<polyline class="st3" points="36.9,81 35.4,83.2 36.9,81 				"/>
				<path class="st3" d="M36.4,81.7l-1,1.5c-1,1.5-2,3-3,4.5c-0.6,0.8-1.2,1.7-1.8,2.5c0.6-1,1.3-2,1.9-3.1c0.7-1,1.3-2,2-3
					c-0.7,1-1.3,2-2,3c-0.6,1-1.3,2-1.9,3.1c0.6-1,1.3-2,1.9-3.1c0.7-1,1.3-2,2-3L36.4,81.7"/>
				<polyline class="st4" points="36.9,81 35.4,83.2 36.4,81.7 36.9,81 				"/>
				<path class="st4" d="M35.4,83.2c-1,1.5-2,3-3,4.5C33.4,86.2,34.3,84.7,35.4,83.2"/>
				<path class="st4" d="M34.5,84.2c-0.7,1-1.3,2-2,3c-0.6,1-1.3,2-1.9,3.1c0.6-1,1.3-2,1.9-3.1C33.2,86.2,33.8,85.2,34.5,84.2"/>
				<path class="st3" d="M32.4,87.7c-1.1,1.8-2,3.6-3,5.4c-0.6,0.9-1.1,1.7-1.6,2.6c0.7-1.4,1.5-2.7,2.2-4.1
					C30.8,90.4,31.5,89,32.4,87.7"/>
				<path class="st4" d="M29.4,93.2c-0.6,0.9-1.1,1.7-1.6,2.6C28.3,94.9,28.8,94,29.4,93.2"/>
				<path class="st4" d="M32.4,87.7c-1.1,1.8-2,3.6-3,5.4C30.4,91.3,31.3,89.5,32.4,87.7"/>
				<path class="st3" d="M32.4,87.7c-0.8,1.3-1.6,2.6-2.4,4c-0.8,1.3-1.5,2.7-2.2,4.1c-0.9,1.5-1.9,2.9-2.7,4.5
					c0.7-1.6,1.6-3.1,2.4-4.6c0.8-1.5,1.7-3,2.6-4.5l0.5-0.9C31.1,89.4,31.8,88.6,32.4,87.7"/>
				<path class="st4" d="M32.4,87.7c-0.8,1.3-1.6,2.6-2.4,4c-0.8,1.3-1.5,2.7-2.2,4.1c0.7-1.4,1.5-2.7,2.2-4.1
					C30.8,90.4,31.5,89,32.4,87.7"/>
				<polyline class="st4" points="16.8,118.5 16.3,120.6 16.8,118.5 				"/>
				<path class="st3" d="M16.3,120.6l-0.5,2.1c-0.4,1.4-0.7,2.8-1.1,4.2l-0.5,2.1l-0.4,2.1c0.3-1.8,0.7-3.5,1.2-5.3
					C15.3,124,15.8,122.3,16.3,120.6"/>
				<polyline class="st4" points="16.3,120.6 15.9,122.7 16.3,120.6 				"/>
				<path class="st4" d="M15.9,122.7c-0.4,1.4-0.7,2.8-1.1,4.2l-0.5,2.1l-0.4,2.1l0.4-2.1l0.5-2.1C15.1,125.4,15.4,124,15.9,122.7"
					/>
				<path class="st3" d="M20.6,109.7c-0.7,2-1.5,3.9-2.1,6l0.5-2.1C19.5,112.3,20,111,20.6,109.7"/>
				<path class="st3" d="M30.6,90.3l-0.5,0.9c-3.7,5.8-6.9,12-9.5,18.5C23.4,102.9,26.7,96.4,30.6,90.3"/>
				<polyline class="st4" points="30.6,90.3 30.1,91.2 30.6,90.3 30.1,91.2 30.6,90.3 				"/>
				<polyline class="st5" points="30.6,90.3 30.1,91.2 30.6,90.3 				"/>
				<path class="st3" d="M39.6,167.5c1,4.2,2.3,8.4,3.8,12.6c-1.8-4.7-3.3-9.4-4.5-14.2L39.6,167.5"/>
				<path class="st3" d="M42,173c1,4,2.2,8,3.5,12c-1.9-5.1-3.6-10.1-4.9-15.1C41.1,170.9,41.5,172,42,173"/>
				<path class="st3" d="M48.6,180.6c1.3,2.8,2.6,5.6,3.9,8.2c1.3,2.7,2.6,5.3,3.9,7.8c2.6,5,5,9.7,7.2,13.9
					c-2.9-4.7-5.6-9.6-8.1-14.6l0.4,0.8c-1.3-2.6-2.6-5.3-3.8-8C51,186,49.8,183.2,48.6,180.6"/>
				<path class="st3" d="M48.6,180.6c1.1,2.7,2.3,5.4,3.6,8.1c1.2,2.7,2.5,5.4,3.8,8l-0.4-0.8C53.2,190.9,50.8,185.7,48.6,180.6"/>
				<path class="st4" d="M48.6,180.6c1.1,2.7,2.3,5.4,3.6,8.1c1.2,2.7,2.5,5.4,3.8,8c-1.3-2.6-2.6-5.3-3.8-8
					C51,186,49.8,183.2,48.6,180.6"/>
				<path class="st3" d="M43.4,176.2c0.4,1.4,0.9,2.8,1.3,4.2c-1-2.5-1.9-4.9-2.7-7.4C42.5,174.1,42.9,175.1,43.4,176.2"/>
				<path class="st3" d="M36.1,142.4L36,145c0,0.9,0,1.7,0,2.6c0-0.9,0-1.7,0-2.6L36.1,142.4"/>
				<path class="st6" d="M151.6,25.2l2.3-0.4l2.3-0.5c1.1-0.3,2.1-0.7,3.2-1.1c1.1-0.4,2.1-0.9,3.1-1.3c-5.1,1.3-10.3,1.6-15.6,1.6
					c-5.3,0-10.8-0.3-16.7-0.1c1.2,0.1,2.4,0.1,3.7,0.2c-6.4,0.1-11.8,0.4-16.9,1.8c-5.1,1.3-9.7,3.6-14.3,6.8
					c3.3-2.1,7-4.1,11.1-5.5c4.1-1.4,8.4-2.1,12.7-2.3c4.3-0.2,8.7,0,12.9,0.3C143.7,24.9,147.8,25.2,151.6,25.2"/>
				<polyline class="st3" points="88.7,45.3 85.9,47.7 88.7,45.3 				"/>
				<path class="st3" d="M130.3,23.5c-1.8,0.1-3.6,0.2-5.5,0.4C126.7,23.7,128.5,23.5,130.3,23.5"/>
				<polyline class="st3" points="93,41.9 88.7,45.3 93,41.9 				"/>
				<path class="st3" d="M33.4,144.1l-0.1,1.3l0,1.3l0,2.6c-0.1,1.8-0.1,3.5-0.1,5.3c-0.1-1.8-0.2-3.5-0.2-5.3l0-2.7l0-1.3l0.1-1.3
					L33.4,144.1"/>
				<polyline class="st3" points="33.6,144.1 33.5,145.4 33.4,146.8 33.3,149.4 33.3,146.8 33.3,145.5 33.4,144.1 33.6,144.1 				
					"/>
				<path class="st3" d="M34.9,142.4c-0.1,1.4-0.4,2.9-0.4,4.3l-0.2,2.6c-0.1,0.9,0,1.7,0,2.6c0,0.9,0,1.8,0,2.6l0.1,2.6
					c-0.5-4.3-0.6-8.7-0.3-13.1L34.9,142.4"/>
				<path class="st3" d="M35,142.4c-0.2,1.4-0.4,2.9-0.5,4.3c0-1.4,0.3-2.9,0.4-4.3L35,142.4"/>
				<path class="st3" d="M35.3,141.6c-0.2,2-0.5,4-0.5,6c-0.2,2-0.1,4-0.1,6.1l-0.2-3.5c0-1.2,0-2.3,0-3.5c0.1-1.4,0.3-2.9,0.5-4.3
					L35.3,141.6"/>
				<path class="st6" d="M33.2,144.1l-0.1,1.3l0,1.3l0,2.7c0,1.8,0.1,3.5,0.2,5.3c0-1.8,0-3.6,0.1-5.3c0.2,4.8,0.9,10.1,2.1,15.2
					c1.3,5.2,3.1,10.2,4.8,14.9c-2.3-4.8-4.2-9.7-5.6-14.8c-2.3-8.7-2.9-17.8-2.1-26.8l0.2,3.1L33.2,144.1"/>
				<path class="st7" d="M33.2,144.1l-0.1,1.3l0,1.3l0,2.7c0,1.8,0.1,3.5,0.2,5.3c-0.1-1.8-0.2-3.5-0.2-5.3l0-2.7l0-1.3L33.2,144.1"
					/>
				<path class="st3" d="M32.8,133.4c-1.2,6.6-1.5,13.8-1,20.6c0.4,6.8,1.8,13,2.9,18c-0.3-0.9-0.7-1.9-1-2.8
					c-0.7-2.3-1.3-4.5-1.7-6.6c-0.2-1.1-0.4-2.2-0.6-3.2c-0.1-1.1-0.3-2.1-0.4-3.2c-0.1-0.5-0.1-1-0.2-1.6c0-0.5-0.1-1-0.1-1.5
					c0-1-0.1-2-0.1-3.1c0-1,0-2,0-3l0-1.5l0.1-1.5c0.1-1,0.1-2,0.2-3c0.1-1,0.2-2,0.4-3c0.2-2,0.6-4,0.9-6.1
					c0.8-4.1,1.7-8.4,3.1-12.9c0.1-0.5,0.3-1,0.4-1.4c-1.7,4.2-3.5,9.8-4.6,15.7c-1.2,5.8-1.7,11.8-1.8,16.4
					c0-7.4,0.9-14.5,2.6-21.3c1.7-6.7,4.1-13.2,7.1-19.2c-1.5,3.9-2.9,7.9-3.9,12l-0.4,1.5l-0.3,1.5l-0.7,3.1l-0.5,3.1l-0.2,1.5
					L32.8,133.4"/>
				<path class="st3" d="M29.9,155.2c0.2,6.5,1.3,13.1,3,19.4c-0.9-2.7-1.6-5.4-2.2-8.2C30.1,162.7,29.9,158.9,29.9,155.2"/>
				<path class="st3" d="M42.6,198.7l1.2,2.5l0.3,0.9C43.6,201,43.1,199.9,42.6,198.7"/>
				<path class="st3" d="M36.2,183.3c0.5,1.5,1.1,2.9,1.7,4.3c1.5,3.7,3.1,7.4,4.8,11.1l1.2,2.5C41.1,195.3,38.5,189.4,36.2,183.3
					 M37.8,187.7c1.5,3.7,3.1,7.4,4.8,11.1C40.9,195.1,39.4,191.4,37.8,187.7"/>
				<path class="st3" d="M30.6,166.4c0.6,2.8,1.4,5.5,2.2,8.2c1.4,4.5,3.2,8.8,5,13.1c1.5,3.7,3.1,7.4,4.8,11.1
					c0.5,1.1,1,2.2,1.6,3.4l-0.3-0.9c2.3,5.5,4.7,10.9,7.5,16.2c-3.7-5.9-7-11.9-10-18c-1.8-4.8-3.9-10.2-5.9-15.9
					C33.3,177.9,31.6,172,30.6,166.4"/>
				<path class="st4" d="M30.6,166.4c0.6,2.8,1.4,5.5,2.2,8.2C32,171.9,31.3,169.2,30.6,166.4"/>
				<path class="st4" d="M42.6,198.7c0.5,1.1,1,2.2,1.6,3.4C43.6,201,43.1,199.9,42.6,198.7"/>
				<path class="st4" d="M37.8,187.7c1.5,3.7,3.1,7.4,4.8,11.1C40.9,195.1,39.4,191.4,37.8,187.7"/>
				<path class="st4" d="M37.8,187.7c1.5,3.7,3.1,7.4,4.8,11.1C40.9,195.1,39.4,191.4,37.8,187.7"/>
				<path class="st3" d="M43.3,204.7c4.7,9.2,9.5,17.4,13.5,24c-4.8-6.1-8.9-12.5-12.8-19c0.6,0.7,1.3,1.4,1.9,2.2
					C45,209.5,44.1,207.1,43.3,204.7"/>
				<path class="st3" d="M219.8,241.8c2.4-0.9,4.8-1.9,7.2-2.9l-2.1,1.4C223.2,240.8,221.5,241.3,219.8,241.8"/>
				<path class="st8" d="M231.9,47.1c-0.6-0.8-1.3-1.6-1.9-2.3c-0.6-0.7-1.3-1.5-1.9-2.2c-1.3-1.4-2.6-2.8-3.8-4
					c-1.2-1.2-2.4-2.3-3.6-3.2c-1.2-0.9-2.3-1.7-3.6-2.4c-2.6-1.4-5.8-2.3-9-3.1c-3.2-0.8-6.6-1.5-9.6-2.5c4.7,0.2,9.3-0.2,13.7,0
					c2.2,0.1,4.3,0.3,6.4,0.8c2,0.4,4,1.2,5.9,2.1c3.1,1.5,6,3.6,8.8,5.8c2.8,2.2,5.3,4.6,7.6,7c2.3,2.4,4.4,4.9,6.2,7.4
					c1.8,2.5,3.5,4.9,4.9,7.2c2.8,4.6,4.7,8.7,5.8,11.6c1.1,3,1.3,4.9,0.5,5.2c-0.4,0.2-1.2-0.1-2.4-0.9
					c-3.6-5.5-7.5-10.6-11.6-15.1C240.2,54,236,50.2,231.9,47.1"/>
				<path class="st3" d="M274.1,133.7l0.3-3.5c0.3,3,0.7,4.8,1.1,7.1c0.4,2.3,0.7,5.2,0.7,10.7C275.2,146.1,274.8,139.8,274.1,133.7
					"/>
				<path class="st9" d="M268.5,102.6c-0.3-3.2-1.2-6.8-2.7-10.7c-1.5-3.9-3.7-8-6.2-12.2c-1.2-2.1-2.5-4.1-3.8-6.1
					c1.1,0.8,1.9,1.1,2.4,0.9c0.8-0.4,0.6-2.2-0.5-5.2c-1.1-3-3-7-5.8-11.6c-1.4-2.3-3-4.7-4.9-7.2c-1.9-2.4-3.9-4.9-6.2-7.4
					c-2.3-2.4-4.9-4.8-7.6-7c-2.8-2.2-5.7-4.3-8.8-5.8c2.4,1.1,4.7,2.6,6.9,4.2l1.7,1.2l1.6,1.3c1.1,0.8,2.1,1.7,3.2,2.6
					c4.2,3.6,8,7.6,11.6,11.8c7.1,8.5,13.1,18,18.6,27.7c3.6,6.5,6.9,13.1,9.1,20.1c1.6,5,2.8,10.2,3.5,15.5
					c0.8,5.3,1.2,10.7,1.5,16.1c0.3,5.4,0.3,10.8,0.4,16.3c0,5.5,0.1,10.9-0.1,16.3c0.3-0.9,0.7-1.8,1-2.7
					c0.2-5.2,0.2-10.5,0.2-15.7c0-5.1-0.1-10.2-0.3-15.3c-0.1-1.6-0.2-3.1-0.3-4.7c-0.7-9.3-2.1-18.4-4.7-26.8
					c-2.6-8.3-6.4-15.9-9.9-22.9c3.3,5.2,6.4,10.6,8.9,16.4c2.5,5.8,4.3,11.9,5.5,18.2c1.6,8.3,2,16.8,2.1,25.1
					c0,6.3-0.2,12.5-0.4,18.6c-0.2,6.1-0.6,12.1-1.7,17.8c-1,5.7-2.6,11.1-5,15.9c-2.3,4.8-5.2,9.2-8.1,13.2
					c-2.1,2.9-4.7,6.6-7.6,10.8c-2.8,4.1-5.9,8.5-9.2,12.6c3.1-3.9,5.9-8.1,8.8-12.3l0.2-2c-4.3,5.5-8.7,10.8-13.3,15.3
					c1.1-1.2,2.2-2.5,3.3-3.9c3.9-4.9,7.6-10.4,11.4-15.9c3.4-5,6.6-9.9,9.1-14.9c1.6-3.1,2.9-6.3,3.8-9.5l0,0
					c1.4-5.1,2-10.7,2.2-16.5c0.1-5.8-0.1-12.1-0.3-18.7c-0.2,5.2-0.3,10.3-0.6,15.3c-0.4,2.5-0.8,3.6-1.1,3.8
					c-0.7,0.4-1-3.5-1.5-9.3c-0.2-2.9-0.5-6.3-0.6-9.7c-0.2-3.4-0.4-6.8-0.5-9.9l0.1-1.8c0.7,6.1,1.1,12.5,2.1,14.3
					c-0.1-5.5-0.4-8.4-0.7-10.7c-0.4-2.3-0.8-4.1-1.1-7.1l1-3.5c0.1-4.1,0-8.1-0.3-12.1c1.2,2.8,1.1-0.8,0.5-5
					c-0.5-4.1-1.7-8.7-0.7-8c-1.6-6.6-4.2-13.1-7.4-19.5c-2.3-3.1-4.7-6.2-7.2-9.3c1.8,3.6,3.5,7.4,4.9,10.9
					c1.4,3.5,2.6,6.8,3.3,9.6C270,98.9,269.9,102.6,268.5,102.6"/>
				<path class="st10" d="M258.2,74.5c0.8-0.4,0.6-2.2-0.5-5.2c-1.1-3-3-7-5.8-11.6c-1.4-2.3-3-4.7-4.9-7.2
					c-1.9-2.4-3.9-4.9-6.2-7.4c-2.3-2.4-4.9-4.8-7.6-7c-2.8-2.2-5.7-4.3-8.8-5.8c3.1,1.5,6,3.6,8.8,5.8c2.8,2.2,5.3,4.6,7.6,7
					c2.3,2.4,4.4,4.9,6.2,7.4c1.8,2.5,3.5,4.9,4.9,7.2c2.8,4.6,4.7,8.7,5.8,11.6C258.8,72.2,259,74.1,258.2,74.5"/>
				<path class="st11" d="M274.4,130.2c0.3,3,0.7,4.8,1.1,7.1c0.4,2.3,0.7,5.2,0.7,10.7c-0.1-5.5-0.4-8.4-0.7-10.7
					C275.1,135,274.7,133.2,274.4,130.2"/>
				<path class="st3" d="M240.1,232c3.1-2.1,6-4.5,8.8-7.2c1.1-1.2,2.2-2.5,3.3-3.9c3.9-4.9,7.6-10.4,11.4-15.9l0.3-0.9
					c-3.3,4.7-6.6,9.5-10,13.8c1.8-2.5,3.5-5.1,5.2-7.7l5.1-8c-2.2,2.8-4.6,6.3-7,9.7c-2.4,3.5-4.9,7-7.6,10.2
					C246.6,225.8,243.6,229.1,240.1,232 M252.2,220.9c3.9-4.9,7.6-10.4,11.4-15.9C259.8,210.5,256.1,215.9,252.2,220.9"/>
				<path class="st4" d="M252.2,220.9c3.9-4.9,7.6-10.4,11.4-15.9C259.8,210.5,256.1,215.9,252.2,220.9"/>
				<polyline class="st3" points="273.8,131 274.4,130.2 274.1,133.7 273.8,131 				"/>
				<polyline class="st3" points="258.9,48.2 258.8,47 258.9,48.2 				"/>
				<path class="st12" d="M264.1,140.9c0.6-5.7,1.3-8.8,2-10.5c0.7-1.7,1.6-2,2.4-1.7c1.8,0.6,3.7,3.8,5.3,2.4l0.3,2.6l-0.1,1.8
					c0.2,3.1,0.3,6.5,0.5,9.9c0.2,3.4,0.4,6.8,0.6,9.7c0.5,5.8,0.8,9.7,1.5,9.3c0.3-0.2,0.7-1.3,1.1-3.8c0.3-4.9,0.4-10.1,0.6-15.3
					c0.2,6.6,0.5,12.8,0.3,18.7c-0.1,5.9-0.7,11.4-2.2,16.5c-0.9,3.3-2.2,6.4-3.8,9.5c-2.6,5-5.8,9.9-9.1,14.9l0.3-0.9
					c3-4.5,5.8-8.9,8.2-13.4c-2.3,3.6-5.1,7.9-8.3,12.7c-1.6,2.4-3.2,4.9-4.9,7.4c-1.6,2.5-3.3,4.9-4.9,7.2c1.8-2.5,3.5-5.1,5.2-7.7
					l5.1-8c-2.2,2.8-4.6,6.3-7,9.7c-2.4,3.5-4.9,7-7.6,10.2c0.4-0.8,0.8-1.5,1.1-2.3c-2.5,2.3-5.1,4.4-7.8,6.2
					c4.4-4,8.6-8.9,12.7-14.3l3-6.6c-2.6,2.5-5.5,5.4-9,8.8c-3.4,3.2-7.2,6.9-11.7,10.3c2.9-2.2,5.6-4.8,8.4-7.7
					c2.7-2.9,5.4-6.1,8.3-9.7c1.4-1.8,2.9-3.7,4.4-5.7c1.5-1.9,2.9-3.9,4.3-6c2.8-4.1,5.5-8.6,7.4-13.7l-0.4-1.7
					c0.6-1.3,1.2-2.7,1.7-4.2c-1.4,2.5-3,5.9-5.2,9.4c-2.2,3.4-4.8,6.8-6.8,8.5c3-4,5.6-7.8,7.6-11.7c-0.6,0.1-1.7,1.6-3,3.3
					c-1.2,1.6-2.7,3.5-3.6,4.3c1.7-2.4,3-4.1,4.2-5.6c1.2-1.5,2.2-2.7,3.2-4.1c1.9-2.7,3.6-6,4.2-12.9c0-0.2,0-0.4,0.1-0.6
					c0-0.3,0.1-0.7,0.1-1c0.4-6.3,0.1-11.5-0.3-15.2c-0.4-3.7-1-5.9-1.6-6.9c-1.3-1.9-2.9,0.9-4.3,6.8l0.5-5.4
					C266.3,134.7,265,143.5,264.1,140.9"/>
				<path class="st13" d="M276.7,164.3c0.3-0.2,0.7-1.3,1.1-3.8c0.3-4.9,0.4-10.1,0.6-15.3c-0.2,5.2-0.3,10.3-0.6,15.3
					C277.4,163,277,164.1,276.7,164.3"/>
				<path class="st13" d="M278.3,145.2c0.2,6.6,0.5,12.8,0.3,18.7c-0.1,5.9-0.7,11.4-2.2,16.5c1.4-5.1,2-10.7,2.2-16.5
					C278.8,158.1,278.5,151.8,278.3,145.2"/>
				<path class="st14" d="M253.9,217.8c1.8-2.5,3.5-5.1,5.2-7.7l5.1-8l-5.1,8C257.4,212.8,255.6,215.4,253.9,217.8"/>
				<polyline class="st14" points="263.9,204 263.5,204.9 263.9,204 				"/>
				<path class="st12" d="M231.9,242.2c-1,0.7-1.9,1.3-2.9,1.9c-1.2,0.9-2.4,1.8-3.6,2.7c1.6-0.8,3.2-1.6,4.8-2.4
					c-1.6,0.8-3.2,1.6-4.8,2.4l-0.4,1.1c3.9-1.6,7.7-3.3,11.4-5.3c-2,1.2-4.1,2.3-6.3,3.4c3.3-1.4,6.5-3,9.7-4.8
					c-3.8,2.4-7.8,4.5-11.8,6.4l0.2,0.4c1.4-0.6,2.8-1.2,4.1-1.9c4.8-2.5,9.5-5.6,13.8-9.2c4.2-3.5,7.9-7.6,11.2-11.4
					c-2.7,3.8-5.8,7.4-9.2,10.6c-7.3,6.8-16.3,11.7-25.8,16.3l-3.2,1.8c6.3-2.7,12.9-5.8,18.9-9.3c6-3.5,11.2-7.4,15.1-10.8
					c-0.7,0.8-1.4,1.5-2.1,2.2c-3.5,3.4-7.1,6.1-10.7,8.4c-3.6,2.3-7.2,4.1-10.9,5.9c-3.7,1.7-7.4,3.3-11.3,5
					c-3.9,1.7-8,3.4-12.4,5.3c-0.5,0.2-0.9,0.4-1.4,0.6c4.4-1.3,10-3.4,15.5-5.7c5.5-2.2,11.1-4.6,15.3-6.6
					c-6.6,3.5-13.3,6.1-19.8,8.7c-6.5,2.5-13.1,4.8-19.7,6.6l-1.7,0.6c-8.8,2.5-17.3,4.2-25.7,4.5l-1.6,0.1l-1.6,0c-1,0-2.1,0-3.1,0
					c-1,0-2.1,0-3.1,0c-1,0-2.1-0.1-3.1-0.2c-2-0.1-4.1-0.2-6.1-0.4c-2-0.3-4-0.5-6.1-0.8l5.1,0.9l1.3,0.2c0.4,0.1,0.9,0.1,1.3,0.1
					l2.6,0.3c1.7,0.1,3.5,0.4,5.2,0.5l5.2,0.1l-5.2-0.1c-1.7-0.1-3.5-0.3-5.2-0.5l-2.6-0.3c-0.4,0-0.9-0.1-1.3-0.1l-1.3-0.2
					l-5.1-0.9c-1.6-0.2-3.2-0.6-4.8-0.9c-1.6-0.3-3.2-0.7-4.7-1c-1.5-0.4-3.1-0.9-4.6-1.3c-1.5-0.5-3.1-0.8-4.6-1.4
					c-1.5-0.5-3-1.1-4.5-1.6c-0.7-0.3-1.5-0.5-2.2-0.8l-2.2-0.9c-1.4-0.6-2.9-1.2-4.3-1.9c-1.4-0.6-2.8-1.4-4.2-2.1
					c-11-5.7-21-13-29.5-22c1,1.3,2.2,2.4,3.3,3.6l1.7,1.8l0.8,0.9c0.3,0.3,0.6,0.6,0.9,0.8l3.6,3.3c0.6,0.6,1.2,1.1,1.8,1.7
					l1.9,1.5c-0.7-0.4-1.4-0.8-2.1-1.2c-0.7-0.4-1.3-0.9-2-1.3c-1.3-0.9-2.7-1.9-4-2.8l-1-0.7l-1-0.8l-1.9-1.6
					c-1.3-1.1-2.6-2.1-3.8-3.3c-1.2-1.2-2.3-2.4-3.5-3.5c-0.6-0.6-1.2-1.2-1.7-1.7c-0.6-0.6-1.1-1.2-1.6-1.8c-2.1-2.4-4.1-4.8-6-7.1
					c2.7,3.9,5.5,7.6,8.5,11c0.7,0.8,1.5,1.7,2.2,2.5l1.1,1.3l0.6,0.6l0.6,0.6c1.6,1.6,3.2,3.1,4.7,4.6c6.5,5.9,13.6,11.1,21.8,15.5
					c-8.1-4.4-15.2-9.6-21.8-15.5c-1.6-1.5-3.1-3.1-4.7-4.6l-0.6-0.6l-0.6-0.6l-1.1-1.3c-0.7-0.8-1.5-1.7-2.2-2.5
					c-3-3.4-5.7-7.1-8.5-11c-0.8-0.9-1.5-1.9-2.2-2.9c1.9,3.4,4.2,6.9,6.7,10.4c0.7,0.9,1.3,1.7,2,2.6c0.7,0.8,1.4,1.7,2.2,2.5
					c1.5,1.7,2.9,3.4,4.5,5c6.2,6.6,13.5,12,20,16.5c-2.4-1.4-4.6-3-6.7-4.5c-1.1-0.8-2.2-1.5-3.2-2.4c-1-0.9-2-1.7-3-2.6
					c-1-0.9-2.1-1.7-3.1-2.6c-1-1-2-1.9-3-2.9c-1-1-2.1-2-3.2-3.1c-1-1.1-2.1-2.2-3.2-3.4l2.3,2.9c1.2,1.4,2.7,2.6,4,3.9
					c-1.3-1.3-2.8-2.5-4-3.9c-1-1.1-2-2.2-3-3.2c-0.5-0.5-1-1.1-1.5-1.6c-0.5-0.5-0.9-1.1-1.4-1.6c-1.8-2.2-3.4-4.4-4.9-6.5
					c-3-4.4-5.6-8.7-8-13.1c-3.4-4.3-7-9.2-10.3-14.5c-3.3-5.3-6.5-10.9-9.1-16.9c-0.9-2-1.7-4-2.4-6.1c1.4,4.5,3.2,8.8,5,13.1
					c-0.6-1.4-1.1-2.9-1.7-4.3c2.4,6.1,4.9,12,7.6,17.9c2.3,5.5,4.7,10.9,7.5,16.2c-3.7-5.9-7-11.9-10-18c0.6,1.8,1.3,3.5,2,5.3
					c4.7,9.2,9.5,17.4,13.5,24c-4.8-6.1-8.9-12.5-12.8-19c-2.6-3.6-5-7.3-7.4-11l-0.7,2.5c1.3,3.9,3.3,8.8,6.3,14.5
					c3,5.7,6.9,12.1,12.1,18.7c0.6,0.8,1.2,1.6,1.9,2.3l0.5-1.7c0.8,1.5,1.6,3,2.5,4.5c1.1,1,2.3,2,3.5,3l3.6,2.9
					c1,1.1,2.1,2.2,3.2,3.2l3.3,3.1c4.4,2.6,9.8,6.3,15.7,10l1.1,0.7l1.1,0.7c0.8,0.4,1.5,0.9,2.3,1.3c1.6,0.9,3.1,1.8,4.7,2.7
					c1.6,0.8,3.2,1.6,4.8,2.4c1.6,0.8,3.2,1.6,4.8,2.2c-1.8-0.8-3.5-1.9-5.2-2.9c0.8,0.2,1.6,0.4,2.4,0.7c0.8,0.3,1.7,0.6,2.6,0.8
					c1.8,0.6,3.6,1.2,5.4,1.9c0.7,0.3,1.4,0.6,2.1,0.8c0.7,0.2,1.4,0.5,2.2,0.7c1.4,0.5,2.9,1,4.3,1.5c1.4,0.6,2.8,1,4.2,1.4
					c1.4,0.4,2.7,0.8,4,1.2c1.9,0.7,3.8,1.1,5.7,1.6c1.9,0.5,3.8,1,5.8,1.4c0.4,0,0.7,0.1,1.1,0.1l-0.4,0l0.4,0.1l4.2,0.5
					c1.4,0.1,2.8,0.4,4.2,0.4c2.8,0.1,5.7,0.3,8.5,0.4c3,0.1,6,0.2,9.1,0.2l5.1,0l-5.1,0c-2,0.1-4,0-6.1,0l5.1,0.4l-5.1-0.1
					c-1.7-0.1-3.4,0-5-0.2c1.7,0.2,3.4,0.2,5,0.3l5.1,0.1c1.7,0,3.4-0.1,5.1-0.2c1.7-0.1,3.4-0.1,5.1-0.3l7.1-1l-2,0.5l2.3-0.2
					c0.8-0.1,1.5-0.1,2.3-0.3l4.6-0.8c1.6-0.3,3.3-0.6,4.8-1c1.6-0.4,3.1-0.8,4.7-1.3c3.1-0.9,6.1-1.9,9.1-2.9
					c3.9-1.7,7.7-3.6,11.4-5.4c-3.1,1.6-6.3,3.2-9.6,4.7c-1.8,0.8-3.6,1.6-5.5,2.4c6.3-2.3,12.2-4.9,18-7.6l-0.6,0.9
					c3.5-1.5,7.4-3.2,11.7-5.4c4.2-2.1,8.8-4.6,13.3-7.7l0.9-0.6c2.5-1.8,5-3.8,7.4-5.9c2.4-2.1,4.8-4.5,6.9-6.9
					c-1.8,2.1-3.8,4.2-5.9,6.2c-2.1,2-4.2,3.8-6.4,5.5c0.5,0,0.9,0,1.4,0.1c2.2-1.6,4.3-3.4,6.4-5.4c2.1-2,4.2-4.1,6-6.3
					c3.7-4.3,7-8.8,10-13.2c1.4-2.1,2.9-4.2,4.3-6.2l-1.2,1.5c2.7-4.1,5-7.8,7.5-12c4-7.2,8.1-15.2,10.6-24.2
					c-1.1,2.4-2.2,4.7-3.5,6.8c1.2-2.2,2.4-4.4,3.5-6.8c2.4-8.2,3-16.1,3-23c0-7-0.5-13.2-1.1-18.8c-1.1-11.3-2.5-22.1-4.9-31
					c1,6.8,1.6,13.5,2.1,19.8c0.4,6.3,0.9,12.3,1.2,17.9c0.4,8.5,0.4,17.8-1.7,27.6c-1.1,4.9-2.7,9.8-4.8,14.3
					c-2,4.5-4.3,8.6-6.7,12.5c-1,1.7-2.1,3.4-3.1,5c3.1-5.8,6.2-12.1,8.8-19.1l-0.4,1c0.5-1.7,1.1-3.4,1.5-5.1
					c-0.3,1.4-0.7,2.8-1.1,4.1c1.7-3.8,3.1-7.8,4.1-11.8c1-4,1.5-7.8,1.9-11.5c0.6-7.4,0.4-14.1,0.1-20.4c-0.3-6.3-0.6-12.5-1-18.9
					c-0.4-6.5-1-13.1-2.1-20.2c0.4,1.6,0.8,3.2,1.1,4.8c-1.2-8.2-3.2-16.6-6.3-24.6c-3.2-8-7.3-15.2-11.6-22
					c-3.8-4.7-7.6-9.3-11.8-13.7c2.8,4.2,5.4,8.4,7.9,12.7c-1.6-2.3-3.2-4.6-4.9-6.9c-0.8-0.9-3.7-4.8-4.2-5
					c-0.3-0.2,0.5,1.1,3.3,5.7c1.4,2.3,3.3,5.4,5.7,9.6c2.4,4.2,5.4,9.5,8.5,16.6c2.2,4.9,3.8,10.1,5.1,15.3
					c-1.2-4.3-2.7-8.5-4.4-12.4c-1.7-3.9-3.7-7.5-5.7-10.8c-4.1-6.7-8.3-12.4-12.4-17.4c1.9,3.5,3.8,7,5.6,10.5
					c3.3,5.2,6.4,10.6,8.9,16.4c2.5,5.8,4.3,11.9,5.5,18.2c1.6,8.3,2,16.8,2.1,25.1c0,6.3-0.2,12.5-0.4,18.6
					c-0.2,6.1-0.6,12.1-1.7,17.8c-1,5.7-2.6,11.1-5,15.9c-2.3,4.8-5.2,9.2-8.1,13.2c-2.1,2.9-4.7,6.6-7.6,10.8
					c-2.8,4.1-5.9,8.5-9.2,12.6c-0.4,0.5-0.7,0.9-1.1,1.4c1.2-1.2,2.4-2.6,3.6-3.9c-1.7,2.1-3.4,4.1-5.2,6c3-2.7,5.9-5.8,8.7-8.9
					c-3.4,4.2-7,8.2-10.8,11.6c-0.5,0.7-1.1,1.3-1.6,2c3.3-2.8,6.3-6,9.2-9.4c-3.2,3.9-6.7,7.5-10.4,10.6c-0.8,0.9-1.5,1.7-2.3,2.6
					C239.7,238.2,235.8,240.3,231.9,242.2 M109.5,261.9c-1.5-0.8-3-1.6-4.5-2.4c-1.5-0.8-3-1.6-4.3-2.5c-2.8-1.8-5.6-3.6-8.3-5.7
					c-1.4-1-2.8-2-4.2-3.2c-1.4-1.2-2.7-2.3-4.2-3.6c-0.7-0.6-1.5-1.2-2.2-1.9c-0.7-0.7-1.4-1.4-2.1-2c-0.7-0.7-1.5-1.4-2.2-2.1
					c-0.4-0.4-0.8-0.7-1.1-1.1c-0.4-0.4-0.7-0.8-1.1-1.2c0.4,0.4,0.7,0.8,1.1,1.2c0.4,0.4,0.8,0.7,1.1,1.1c0.8,0.7,1.5,1.4,2.2,2.1
					c0.7,0.7,1.4,1.4,2.1,2c0.7,0.7,1.5,1.2,2.2,1.9c1.4,1.2,2.8,2.4,4.2,3.6c1.4,1.1,2.8,2.1,4.2,3.2c2.7,2.1,5.5,3.9,8.3,5.7
					c1.4,1,2.9,1.7,4.3,2.5C106.5,260.3,108,261.1,109.5,261.9l5,2.3c1.1,0.5,2.3,1,3.4,1.4c-1.2-0.4-2.3-0.9-3.4-1.4L109.5,261.9
					l1,0.1l6.8,2.8l7,2.4l-7-2.4l-6.8-2.8L109.5,261.9 M184.4,268.7c-1.5,0.4-3.1,0.6-4.6,0.8c-1.5,0.2-2.9,0.4-4.3,0.6
					c-2.8,0.2-5.4,0.2-8,0.3c-1.3,0.1-2.6-0.1-3.9-0.1c-1.3,0-2.6-0.1-3.9-0.1c-1.3,0-2.7-0.1-4-0.2c-1.4-0.1-2.8-0.2-4.3-0.2
					c1.5,0.1,2.9,0.1,4.3,0.2c1.4,0.1,2.7,0.2,4,0.2c1.3,0,2.6,0.1,3.9,0.1c1.3,0,2.6,0.2,3.9,0.1c2.6-0.1,5.2-0.1,8-0.3
					c1.4-0.2,2.8-0.4,4.3-0.6C181.3,269.3,182.8,269.2,184.4,268.7 M195,265.7l0.9-0.3c2.9-0.9,5.8-2,8.7-3.1
					c-2.9,1.1-5.7,2.1-8.7,3.1L195,265.7c-1.3,0.4-2.6,0.7-3.9,1.1c-1.3,0.3-2.5,0.5-3.8,0.8c-1.2,0.2-2.4,0.5-3.6,0.7
					c-0.6,0.1-1.2,0.2-1.8,0.3l-1.8,0.2c-4.8,0.7-9.5,1-15,1.2c5.4-0.2,10.2-0.5,15-1.2l1.8-0.2c0.6-0.1,1.2-0.1,1.8-0.3
					c1.2-0.2,2.4-0.5,3.6-0.7c1.2-0.3,2.5-0.5,3.8-0.8C192.4,266.5,193.7,266.1,195,265.7 M119.1,265l5.3,1.4L119.1,265
					 M289.5,129.4c-0.7-8.1-1.9-16.2-4-24.1C287.6,113.3,288.8,121.4,289.5,129.4 M289.5,129.4c-0.7-8.1-1.9-16.2-4-24.1
					C287.6,113.3,288.8,121.4,289.5,129.4 M289.5,129.4l0.2,3.7l0.3,3.7l0.2,3.7l0.2,3.5c0,0.1,0,0.2,0,0.4l0.1,3.5l0.2,3.7l0.1,3.7
					l0.1,3.7l0.1,3.8c0,1,0,1.9-0.1,2.9c0,1.3,0,2.6-0.1,3.9c-0.1,1.3-0.1,2.6-0.2,3.9c-0.1,1.3-0.2,2.6-0.4,3.9c-0.1,1-0.3,2-0.4,3
					c-0.2,1.3-0.5,2.7-0.8,4c-0.2,1-0.4,2-0.6,3c2.4-7.6,3.1-14.8,3.2-21.4c0.1-6.6-0.3-12.7-0.7-18.6l-0.1-1.3l-0.1-1
					c-0.1-1.5-0.2-2.9-0.3-4.4l-0.1-1.1l-0.3-3.7l-0.2-2.1C289.8,132.4,289.6,130.9,289.5,129.4 M272,70c0.8,1.4,1.6,2.8,2.5,4.3
					c0.6,1,1.1,2,1.7,3c0.6,1.1,1.2,2.2,1.8,3.3c0.6,1.1,1.2,2.2,1.8,3.3c0.7,1.4,1.4,2.9,2.1,4.3c0.3,0.7,0.7,1.4,1,2.1
					c0.9,1.9,1.7,3.9,2.4,5.9l0,0.1c0.5,1.2,0.9,2.4,1.3,3.7c-0.4-1.2-0.8-2.5-1.3-3.7c0.5,1.2,0.9,2.4,1.3,3.7
					c-0.4-1.2-0.8-2.5-1.3-3.7l0,0c0.5,1.2,0.9,2.5,1.3,3.7c-0.3-0.7-0.5-1.5-0.8-2.3c-0.3-0.8-0.6-1.6-0.9-2.4
					c-0.3-0.9-0.6-1.7-1-2.6c-0.6-1.5-1.2-3-1.9-4.5l-0.6-1.4c-0.6-1.3-1.3-2.7-2-4l-1.2-2.3l-1.3-2.4C275.3,75.3,273.6,72.5,272,70
					 M56.8,235l0.2-0.2l-2.2-3.3L56.8,235"/>
				<path class="st2" d="M289.5,129.4c0.4,4.9,0.7,9.8,0.9,14.6l-0.2-3.5l-0.2-3.7l-0.3-3.7L289.5,129.4"/>
				<path class="st2" d="M289.9,133.9l0.2,2.1l0.3,3.7l0.1,1.1C290.3,138.4,290.1,136.2,289.9,133.9"/>
				<path class="st2" d="M290.4,144.4c0.3,7.2,0.7,14.4,0.6,21.7c-0.1,7.2-0.9,14.5-2.7,21.2c0.2-1,0.5-2,0.6-3
					c0.3-1.3,0.6-2.7,0.8-4c0.1-1,0.3-2,0.4-3c0.2-1.3,0.3-2.6,0.4-3.9c0.1-1.3,0.2-2.6,0.2-3.9c0-1.3,0.1-2.6,0.1-3.9
					c0-1,0-1.9,0.1-2.9L291,159l-0.1-3.7l-0.1-3.7l-0.2-3.7L290.4,144.4"/>
				<polyline class="st2" points="290.8,145.1 290.8,146.1 290.9,147.4 290.8,145.1 				"/>
				<path class="st15" d="M141.9,281l-0.4,0l-0.6-0.1C141.2,281,141.6,281,141.9,281"/>
				<path class="st14" d="M293.3,197.3c1.2-2.2,2.4-4.4,3.5-6.8C295.7,192.9,294.5,195.2,293.3,197.3"/>
				<path class="st14" d="M36.2,183.3c0.5,1.5,1.1,2.9,1.7,4.3C37.3,186.2,36.7,184.8,36.2,183.3"/>
				<path class="st14" d="M41.3,199.4c3.1,6.1,6.4,12.1,10,18C47.6,211.6,44.3,205.5,41.3,199.4"/>
				<path class="st14" d="M56.8,228.7c-4.8-6.1-8.9-12.5-12.8-19C47.9,216.2,52.1,222.6,56.8,228.7"/>
				<polyline class="st16" points="289.5,129.4 289.7,133.2 290,136.9 290.2,140.6 290.4,144.1 290.2,140.6 290,136.9 289.7,133.2 
					289.5,129.4 				"/>
				<polyline class="st16" points="289.9,133.9 290.1,135.9 290.4,139.6 290.5,140.7 290.4,139.6 290.1,135.9 289.9,133.9 				"/>
				<path class="st16" d="M290.4,144.4l0.1,3.5l0.2,3.7l0.1,3.7l0.1,3.7l0.1,3.8c0,1,0,1.9-0.1,2.9c0,1.3,0,2.6-0.1,3.9
					c-0.1,1.3-0.1,2.6-0.2,3.9c-0.1,1.3-0.2,2.6-0.4,3.9c-0.1,1-0.3,2-0.4,3c-0.2,1.3-0.5,2.7-0.8,4c-0.2,1-0.4,2-0.6,3
					c0.2-1,0.5-2,0.6-3c0.3-1.3,0.6-2.7,0.8-4c0.1-1,0.3-2,0.4-3c0.2-1.3,0.3-2.6,0.4-3.9c0.1-1.3,0.2-2.6,0.2-3.9
					c0-1.3,0.1-2.6,0.1-3.9c0-1,0-1.9,0.1-2.9L291,159l-0.1-3.7l-0.1-3.7l-0.2-3.7L290.4,144.4"/>
				<polyline class="st16" points="290.8,145.1 290.8,146.1 290.9,147.4 290.8,146.1 290.8,145.1 				"/>
				<path class="st16" d="M285.5,105.3c2.1,7.9,3.3,16.1,4,24.1C288.8,121.4,287.6,113.3,285.5,105.3"/>
				<path class="st16" d="M285.5,105.3c2.1,7.9,3.3,16.1,4,24.1C288.8,121.4,287.6,113.3,285.5,105.3"/>
				<path class="st13" d="M253.2,223.8c3.3-4.1,6.3-8.5,9.2-12.6c2.8-4.1,5.5-7.8,7.6-10.8c2.9-4.1,5.8-8.4,8.1-13.2
					c2.3-4.8,4-10.1,5-15.9c1-5.7,1.4-11.7,1.7-17.8c0.2-6.1,0.4-12.3,0.4-18.6c0,6.3-0.2,12.5-0.4,18.6c-0.2,6.1-0.6,12.1-1.7,17.8
					c-1,5.7-2.6,11.1-5,15.9c-2.3,4.8-5.2,9.2-8.1,13.2c-2.1,2.9-4.7,6.6-7.6,10.8C259.5,215.3,256.5,219.7,253.2,223.8"/>
				<path class="st13" d="M268.6,75.3c3.3,5.2,6.4,10.6,8.9,16.4c2.5,5.8,4.3,11.9,5.5,18.2c-1.2-6.3-3-12.4-5.5-18.2
					C275,85.9,271.9,80.4,268.6,75.3"/>
				<path class="st2" d="M278,80.7c-0.6-1.1-1.2-2.2-1.8-3.3c2.3,4.1,4.6,8.5,6.7,13.1c-0.3-0.7-0.7-1.4-1-2.1
					c-0.7-1.5-1.4-2.9-2.1-4.3C279.2,82.9,278.6,81.8,278,80.7"/>
				<path class="st2" d="M276.9,78.2l1.3,2.4l1.2,2.3C278.6,81.3,277.8,79.7,276.9,78.2"/>
				<path class="st2" d="M281.4,86.9l0.6,1.4c0.7,1.5,1.3,2.9,1.9,4.5c0.3,0.9,0.7,1.7,1,2.6C283.9,92.6,282.7,89.7,281.4,86.9"/>
				<path class="st2" d="M285.3,96.3C285.3,96.3,285.3,96.3,285.3,96.3L285.3,96.3L285.3,96.3"/>
				<polyline class="st3" points="260.6,50.5 261.8,51.9 260.6,50.5 				"/>
				<path class="st8" d="M264.1,57.3c-6.5-9.8-14-19.1-23.2-26.8c-1.2-0.9-2.3-1.9-3.6-2.8c-1.2-0.9-2.4-1.8-3.7-2.7
					c-2.6-1.7-5.5-3.3-8.7-4.6c-1.6-0.6-3.3-1.1-5-1.5c-1.7-0.4-3.4-0.6-5-0.8c-3.3-0.3-6.4-0.3-9.2-0.2c4.6-0.6,9.8-1.2,15.8-0.4
					c-0.8-0.1-1.6-0.2-2.3-0.3c1.9,0.3,4.1,0.9,6.4,1.7c2.3,0.8,4.5,1.9,6.7,3.1c2.2,1.2,4.3,2.6,6.3,4c3.1,2.1,6,4.5,8.7,7
					c1.4,1.2,2.6,2.5,3.9,3.7c1.2,1.3,2.4,2.5,3.4,3.7c1.6,2.1,3.1,4.2,4.5,6.4l-0.1,0.1l0.1,1.1c-1.3-1.4-2.8-2.7-4.2-4
					c2,2.1,4,4.2,5.9,6.4l1.2,1.5c5.1,6.1,9.7,12.6,14,19.1C272.1,66.3,268.2,61.7,264.1,57.3"/>
				<path class="st17" d="M232.1,22.1c-2.2-1.2-4.4-2.3-6.7-3.1c-2.3-0.8-4.5-1.4-6.4-1.7c1.9,0.3,4.1,0.9,6.4,1.7
					C227.7,19.9,229.9,20.9,232.1,22.1c2.2,1.2,4.3,2.6,6.3,4C236.4,24.7,234.3,23.3,232.1,22.1"/>
				<path class="st17" d="M219,17.3c0.8,0.1,1.6,0.1,2.3,0.3C220.6,17.5,219.8,17.4,219,17.3"/>
				<polyline class="st18" points="258.9,48.2 258.7,47 258.8,47 258.9,48.2 				"/>
				<path class="st17" d="M264.1,57.3c4.1,4.4,8,9,11.8,13.7C272.1,66.3,268.2,61.7,264.1,57.3"/>
				<path class="st8" d="M256.5,57.9c-4-5.5-8.8-11.5-14.3-17c-2.8-2.7-5.7-5.3-8.8-7.7c-3.1-2.4-6.2-4.5-9.6-5.9
					c3,0.6,6.4,2,9.9,3.9c3.5,1.9,7.2,4.3,10.9,7c7.2,5.5,14,12.6,19.5,19.1c2.8,4.2,5.4,8.4,7.9,12.7c-1.6-2.3-3.2-4.6-4.9-6.9
					c-0.8-0.9-3.7-4.8-4.2-5c-0.3-0.2,0.5,1.1,3.3,5.7c1.4,2.3,3.3,5.4,5.7,9.6c2.4,4.2,5.4,9.5,8.5,16.6c2.2,4.9,3.8,10.1,5.1,15.3
					c-1.2-4.3-2.7-8.5-4.4-12.4c-1.7-3.9-3.7-7.5-5.7-10.8c-4.1-6.7-8.3-12.4-12.4-17.4c1.9,3.5,3.8,7,5.6,10.5
					c-1.3-2-2.7-4.1-4-6.1c-1.7-2.4-3.6-5.1-5.8-8.2C258.1,60,257.3,58.9,256.5,57.9"/>
				<path class="st17" d="M263.1,64.7c4.1,5,8.3,10.7,12.4,17.4c2,3.3,4,6.9,5.7,10.8c1.7,3.9,3.2,8,4.4,12.4
					c-1.2-4.3-2.7-8.5-4.4-12.4c-1.7-3.9-3.7-7.5-5.7-10.8C271.4,75.5,267.2,69.7,263.1,64.7"/>
				<path class="st17" d="M263,58.1c0.5,0.2,3.4,4.1,4.2,5c1.7,2.3,3.3,4.6,4.9,6.9c-1.6-2.3-3.2-4.6-4.9-6.9
					C266.4,62.2,263.4,58.4,263,58.1"/>
				<path class="st19" d="M277.2,99.2c-2.2-7-5.5-13.6-9.1-20.1c-5.5-9.7-11.5-19.3-18.6-27.7c-3.6-4.2-7.4-8.3-11.6-11.8
					c-1.1-0.9-2.1-1.8-3.2-2.6l-1.6-1.3l-1.7-1.2c-2.2-1.6-4.6-3-6.9-4.2c-2.9-1.5-5.8-2.4-9-2.8c-3.2-0.4-6.6-0.3-10-0.2
					c-2.3,0.1-4.6,0.1-7,0.1c-7.4-2.6-13.3-5.9-17-9.4c4,0.5,8.1,0.8,12.1,0.7c2,0,4-0.1,6-0.2c2-0.1,4-0.4,6.1-0.6
					c2.9,0,6-0.1,9.2,0.2c1.6,0.2,3.3,0.4,5,0.8c1.7,0.4,3.4,0.9,5,1.5c3.2,1.2,6.1,2.9,8.7,4.6c1.3,0.8,2.5,1.8,3.7,2.7
					c1.2,0.9,2.4,1.9,3.6,2.8c9.3,7.8,16.7,17,23.2,26.8c-5.5-6.5-12.3-13.6-19.5-19.1c-3.6-2.8-7.3-5.2-10.9-7
					c-3.5-1.9-6.9-3.3-9.9-3.9c3.3,1.5,6.5,3.6,9.6,5.9c3.1,2.3,6,4.9,8.8,7.7c5.5,5.5,10.3,11.5,14.3,17l0,0
					c0.8,1.1,1.5,2.1,2.3,3.1c2.2,3.1,4.1,5.8,5.8,8.2c1.4,2,2.7,4,4,6.1c3.5,7,7.3,14.6,9.9,22.9c2.6,8.3,4,17.4,4.7,26.8
					c0.1,1.6,0.2,3.1,0.3,4.7c0.2,5,0.3,10.1,0.3,15.3c0,5.3,0,10.5-0.2,15.7c-0.3,0.9-0.7,1.8-1,2.7c0.2-5.4,0.1-10.8,0.1-16.3
					c0-5.5-0.1-10.9-0.4-16.3c-0.3-5.4-0.7-10.8-1.5-16.1C279.9,109.4,278.8,104.2,277.2,99.2"/>
				<path class="st14" d="M277.2,99.2c1.6,5,2.8,10.2,3.5,15.5c0.8,5.3,1.2,10.7,1.5,16.1c0.3,5.4,0.3,10.8,0.4,16.3
					c0,5.5,0.1,10.9-0.1,16.3c0.2-5.4,0.1-10.8,0.1-16.3c0-5.5-0.1-10.9-0.4-16.3c-0.3-5.4-0.7-10.8-1.5-16.1
					C279.9,109.4,278.8,104.2,277.2,99.2"/>
				<path class="st14" d="M268.1,79.1c-5.5-9.7-11.5-19.3-18.6-27.7c-3.6-4.2-7.4-8.3-11.6-11.8c-1.1-0.9-2.1-1.8-3.2-2.6l-1.6-1.3
					l-1.7-1.2c-2.2-1.6-4.6-3-6.9-4.2c2.4,1.1,4.7,2.6,6.9,4.2l1.7,1.2l1.6,1.3c1.1,0.8,2.1,1.7,3.2,2.6c4.2,3.6,8,7.6,11.6,11.8
					C256.5,59.8,262.5,69.3,268.1,79.1"/>
				<path class="st14" d="M283.8,144.9c0-5.1-0.1-10.2-0.3-15.3c-0.1-1.6-0.2-3.1-0.3-4.7c-0.7-9.3-2.1-18.4-4.7-26.8
					c2.6,8.3,4.1,17.4,4.7,26.8c0.1,1.6,0.2,3.1,0.3,4.7C283.7,134.7,283.8,139.8,283.8,144.9"/>
				<path class="st20" d="M256.5,57.9L256.5,57.9c0.8,1.1,1.5,2.1,2.3,3.1C258.1,60,257.3,58.9,256.5,57.9"/>
				<path class="st20" d="M223.8,27.3c3,0.6,6.4,2,9.9,3.9c3.5,1.9,7.2,4.3,10.9,7c7.2,5.5,14,12.6,19.5,19.1
					c-5.5-6.5-12.3-13.6-19.5-19.1c-3.6-2.8-7.3-5.2-10.9-7C230.2,29.3,226.8,27.9,223.8,27.3"/>
				<path class="st3" d="M224.4,30.3c-1.9-0.9-3.9-1.7-5.9-2.1c-2-0.5-4.2-0.7-6.4-0.8c-4.4-0.2-9,0.1-13.7,0c2.3,0,4.7,0,7-0.1
					c3.4-0.1,6.8-0.1,10,0.2C218.6,27.9,221.5,28.9,224.4,30.3"/>
				<path class="st18" d="M224.4,30.3c-1.9-0.9-3.9-1.7-5.9-2.1c-2-0.5-4.2-0.7-6.4-0.8c-4.4-0.2-9,0.1-13.7,0
					c4.7,0.2,9.3-0.2,13.7,0c2.2,0.1,4.3,0.3,6.4,0.8C220.5,28.7,222.5,29.4,224.4,30.3"/>
			</g>
		</g>
	</g>
</g>
<g id="Base">
	<g>
		<g>
			<g class="st21">
				<g class="st21">
					<path class="st22" d="M73.5,142.9c-0.1-3.7-0.3-7.4-0.5-11.1c0.3,0.8,0.7,1.6,1,2.4C74.9,137,73.6,139.9,73.5,142.9z"/>
					<path class="st22" d="M73.7,153.1C73.7,153.1,73.7,153,73.7,153.1c0-2.9-0.1-5.7-0.2-8.6c0,0.2,0,0.4,0.1,0.6
						C74.3,147.7,74.6,150.4,73.7,153.1z"/>
					<path class="st23" d="M84.9,199.1c-3.8-2.9-7-6.4-10.2-9.7c-0.2-0.8-0.7-1.7-0.7-2.4c-0.1,0-0.2-1.2-0.3-2.8s-0.2-3.5-0.1-4.7
						c1.6,1.5,3.4,2.8,5.5,3.8c0.4-1,0.7-3,1.4-3c2.7,0.5,4.5,2.6,6.1,4.7C86.5,185.6,84.5,194.4,84.9,199.1z"/>
					<path class="st24" d="M84.4,210.2c-0.2,3-1.5,7.1-1.9,8.7c-1.6-1-3.2-2-4.5-3.3c-0.7,1-1.4,1.7-1.8,2.7
						c-0.3-0.3-0.5-0.5-0.8-0.8c-0.2-5.1-0.6-10.1-1-15.2C75.4,202.8,81.5,208.8,84.4,210.2z"/>
					<path class="st25" d="M84.2,201.2c0.2,1.2,0.4,2.2,0.6,3.2c-0.1,1.9-0.2,3.9-0.4,5.9c-2.9-1.4-5.5-3.3-7.5-5.7c0,0.3-1,0.6-1,1
						c-0.7-1.6-0.5-2.8-1.4-3.1c-0.3-4.7-0.6-9.4-0.8-14.1c0.7,1,0.4,2,0.4,3c0.9-0.5,0.9-1.2,0.7-2c3.2,3.3,6.4,6.8,10.2,9.7l0,1
						C84.4,200.4,84,200.6,84.2,201.2z"/>
					<path class="st26" d="M77.6,149.8c1.7,2.9,4.2,4.9,6.8,6.5c-0.2,0.9-0.8,2.5-0.2,3.7c-0.1,2.2-0.7,6.8,0.2,7.6
						c0.9,0.7-3.9-4.8-6.2-6.9c-1.4-0.2-2.6-1.4-3.6-2.7c0.1-0.4,1-0.1,1.1-0.5c-0.1,0-1.1-0.8-1.1-0.8s0-3.2,0.1-4.8
						c1.4-0.8,0.3-2.7,0-2.8l0-1.4l0,0c0.5,0.6,0.9,1.2,1.4,1.8C76.5,149.8,77.6,149.8,77.6,149.8z"/>
					<path class="st27" d="M80.5,180.2c2.7,0.5,4.5,2.6,6.1,4.7c0.1-0.8,0.5-3,0.6-3.2c-0.6,0.3-1.3,0.7-1.6,0.2
						c-0.4-1.4-0.7-3-0.7-4.1c0.2-1.3,1-2.7,1.5-4.1c-0.2-1.1-0.5-2.3-0.8-3.4c0-0.1-1-0.7-1.4-0.7c0-0.8,0.2-1.5,0.4-2.2
						c-0.2-0.1-3.6-6.3-6.2-6.9c-1.4-0.2-2.6-1.4-3.6-2.7c0,0.1-0.2,3.9-0.3,5.7c0.3-0.1,0.9-0.8,0.9-1c0,0.3-0.9,2.1-1,2.8
						c-0.1,1.2-0.1,4,0,4.3c0,0.3,0.7-0.3,1.4-0.3c-1,1.4-1.6,2.9-2,4.5l-0.1,1.2c-0.3,0.1-0.5,0.2-0.5,0c-0.1-0.3-0.1-0.5-0.2-0.8
						c-0.1,0.8-0.3,4-0.4,4.9c0.2-0.9,0.5-1.7,0.9-2.6c0,0.9-0.1,1.8-0.1,2.7l0,0.1c1.6,1.5,3.4,2.8,5.5,3.8
						C79.5,182.3,79.8,180.2,80.5,180.2z"/>
					<path class="st28" d="M72.7,94.1c0.6-0.9,0.7-2.1,0.8-3.1c0.1-1.1,0.3-2.2,0.9-3.1c1.2-1.6,2.6-2.7,4.2-3.6
						c1.6-0.9,3.4-1.7,4.8-3.1c1.6,5.2,1.7,9.7,1.8,14.1c0.1,4.3-0.1,8.4-0.3,12.5c-1.6-2-0.8-5.5-3.5-7c-0.4,0-0.7,0.7-1,1.1
						c-1.2-2-1.8-5.3-3.6-5.1c-1.1,0.1-2.2,0.8-3.7,1.2L73,97.2C73.5,96.4,72.9,95.3,72.7,94.1z"/>
					<path class="st29" d="M72.2,107.9c-0.1-1.8-0.2-3.6-0.4-5.3c0.3,0,0.7-0.1,1-0.2c0.1,2,0.3,4.1,0.5,6.3
						C73,108.5,72.6,108.2,72.2,107.9z"/>
					<path class="st29" d="M80.4,101.8c0.3-0.4,0.7-1.1,1-1.1c2.7,1.5,1.9,5,3.5,7c-0.1,3.1-0.2,6.1-0.3,9.2l-0.9-1.6
						c0,1.7-2.5,2-2.5,3.7c-2.7-4.9-3.2-11.6-7.5-15.1c-0.3-2.1-0.5-4.1-0.7-6.1c1.4-0.4,2.6-1.1,3.7-1.2
						C78.5,96.5,79.2,99.8,80.4,101.8z"/>
					<path class="st30" d="M81.2,119c0-1.7,2.5-2,2.5-3.7l0.9,1.6c-0.1,3.5-0.1,7,0,10.6c0,0.2-0.1,0.5-0.1,0.7
						c-0.3,2.7-0.1,5-0.4,7.5c-1.5-1.7-2.9-3.3-4.3-5.1c2-3.2,3.7-6.7,4.7-10.5c-0.4,1.4-2.2,1-2.5,1.7c-2,2.5-6.1,4.7-7.9,3.4
						c-0.3-5.3-0.6-10.5-0.9-15.8c0.5-0.4,1.2-0.9,1.2-1.1c-0.2-1.5-0.4-2.9-0.6-4.3C78.1,107.4,78.6,114.1,81.2,119z"/>
					<path class="st22" d="M79.8,130.6c1.4,1.7,2.8,3.4,4.3,5.1c-0.1,0.6-0.2,1.3-0.3,2c0.3,0,0.6,0,1-0.2l0,1.4
						c-0.2,0.6-1.3,1.1,0,1.9l0,2c-0.4,0.7-1,1.3-1.8,1.6l1.1,0c0.7,0.7,0,1.4,0,2c0.2,0,0.5,0,0.7,0.1c-0.9,3.1,0.1,7.6,0.1,8.4
						c-0.2,0.5-0.4,0.9-0.5,1.4c-2.7-1.6-5.1-3.5-6.8-6.5c0,0-1.1,0-1.4-0.3c-0.4-0.6-0.9-1.2-1.4-1.8c1.8-3.7-0.2-8.4-0.2-8.6
						l0-1.6c0.1-3,2-7.6-0.5-11.1l-0.1-1.2c1.8,1.2,5.9-1,7.9-3.4c0.4-0.7,2.4-2.9,2.5-1.7C84.2,124.3,79.7,130.8,79.8,130.6z"/>
					<path class="st31" d="M80.1,232c-0.2,1.2-0.4,2.3-0.6,3.5c0-1.3,0.4-2.5-0.5-3.2c0.3-0.6,0.3-1.2,0.3-1.8
						C79.7,230.9,79.9,231.4,80.1,232z"/>
					<path class="st31" d="M75,229.7l0-1c0.7,0,1.5,0.7,1.1,1.4c0.7,0,0-0.7,0.4-0.7c1,0,1,0.4,0.9,0.8c-1.6,0-3.2-0.5-3.2-1l0-0.7
						C74.4,228.9,74.6,229.6,75,229.7z"/>
					<path class="st32" d="M76.2,218.4c0.4-1,1.1-1.7,1.8-2.7c1.3,1.2,2.9,2.3,4.5,3.3c-0.7,3.1-1.3,6.1-1.9,9.1
						c-0.2-0.6-0.5-1.1-0.8-1.6c0,0.6,0,1.3-0.3,1.8c-0.2-0.1-0.4-0.2-0.6-0.3l0,0c0.1-0.5,0.1-0.8-0.9-0.8c-0.4,0,0.4,0.7-0.4,0.7
						c0.4-0.7-0.4-1.4-1.1-1.4l0,1c-0.4-0.2-0.6-0.8-0.9-1.2c0-2.9-0.1-5.8-0.2-8.7C75.7,217.9,76,218.2,76.2,218.4z"/>
				</g>
			</g>
		</g>
	</g>
</g>
<g id="Letter">
	<g>
		<g>
			<g class="st21">
				<g class="st21">
					<path class="st22" d="M105.8,140.6c3.4-3.7,7-7.5,10.2-11.1c3.2-3.6,6.1-7.3,8.4-11.2c-0.8,1.9-1.7,3.7-2.7,5.5
						c-1.8,3-4.3,5.7-7.1,8.4C111.7,135,108.6,137.7,105.8,140.6z"/>
					<path class="st22" d="M81.3,166.8C81.3,166.8,81.3,166.7,81.3,166.8c4.6-4.9,9.1-9.6,13.6-14.4l8-8.6l-1,1.2
						c-2.3,2.9-4.6,5.7-7.1,8.4l-2.9,3.1c-1.1,1.1-2.2,2.2-3.3,3.4C86.2,162.1,83.9,164.4,81.3,166.8z"/>
					<path class="st23" d="M180.4,217.8c-3.6,1.8-8,3-12.9,3.3c-4.8,0.3-10.1-0.5-15.1-2.1c-1.1-0.7-2.3-1.3-3.3-2
						c-1-0.7-2.1-1.4-2.9-2.1c0,0-0.7-0.6-1.8-1.6c-1.1-1-2.6-2.5-4.1-4.3c-3-3.4-6.2-7.6-8.3-10.4c3.7,2.3,7.4,4.1,10.8,5
						c-1.5-2.4-4.6-7-4-7.5c3-0.6,7.8,3,12.6,6c0.6,0.6,3.8,5.6,9.4,9.5c2.8,2,6.1,3.7,9.6,4.7C173.9,217.3,177.4,217.8,180.4,217.8
						z"/>
					<path class="st24" d="M209.1,213.9c4-1,8.6-2,12.7-3c4.2-1,7.9-2,10.1-2.7c-1.8,2.5-3.9,5-6.7,7.4c2.9-0.3,4.9-0.3,7.7-1
						c-0.6,0.5-1.2,1-1.8,1.5c-6.6,2.7-13.3,5-20.2,7c-3.4,1-6.9,1.9-10.4,2.7c-3.5,0.8-7.1,1.5-10.7,2c0.5-0.5,4.9-2.8,9.2-5.7
						C203.3,219.2,207.7,215.8,209.1,213.9z"/>
					<path class="st25" d="M185.6,218.4c1.5-0.2,2.9-0.4,4.2-0.7c1.4-0.3,2.6-0.5,3.9-0.9c5-0.8,10.2-1.8,15.3-3
						c-2.8,3.8-7.3,7.6-13.5,10.6c0.9-0.2,1.9,0.7,2.9,0.5c-4.4,1.5-7.7,1.7-8.6,2.7c-3.4,0.5-6.9,0.7-10.4,0.6
						c-3.5,0-7.1-0.5-10.7-1.2c-7.1-1.5-13.9-4.9-19.7-9.4c1.5,0.7,2.7,1.6,4,2.4l2,1.3c0.3,0.2,0.7,0.4,1,0.6l1,0.6
						c-0.2-0.4-0.5-0.7-0.9-1c-0.3-0.3-0.7-0.7-1.1-1c-0.8-0.6-1.8-1.1-2.8-1.8c5,1.6,10.3,2.4,15.1,2.1c4.8-0.3,9.2-1.5,12.9-3.3
						c0.8,0.1,1.7,0,2.5,0C183.6,218.3,184.2,218.7,185.6,218.4z"/>
					<path class="st26" d="M95.5,157.4c-5.6,8.5-4.4,10.7,0.9,8.9c-0.2,0.1-0.5,0.4-0.7,0.5c0.1,0,0.2,0.1,0.3,0.1
						c0.5,0.1,1.8,0,3.3-0.6c0.6-0.1,1.4-0.1,2.2-0.1c0.4,0,0.9,0,1.4,0.1c0.2,0,0.5,0,0.7,0.1c0.6,0,1.1,0.1,1.6,0.1
						c4.6,0.5,8.6,1.8,9.9,1.8c1.3,0-2.7-0.7-7.5-0.1c-1.2,0.2-2.4,0.4-3.7,0.7l-0.5,0.1l-0.3,0.1l-0.8,0.3
						c-0.5,0.2-1.1,0.4-1.7,0.5c-2.3,0.7-5.4,1.7-8,2.6c-1.4,0.9-3.7,1.9-6.9,3c-3.2,1.1-7.5,2.4-12.3,3.7c-1,0.1-0.4-0.2,0.3-0.6
						c0.6-0.4,1.3-0.7,0.5-0.7c0,0-0.1,0-0.2,0.1c-0.3,0.1-1,0.2-1.5,0.2c-0.1,0-0.2,0-0.4,0c-0.1,0-0.1,0-0.1,0c0,0,0-0.1,0-0.1
						c0-0.1,0-0.2,0-0.2s9.9-10.4,14.9-15.6c2.2-1.2,4.1-3.2,5.7-5.1c0.8-0.9,1.5-1.8,2-2.6c0.1-0.2,0.2-0.3,0.3-0.5
						c0.1-0.1,0.1-0.2,0.2-0.3c0.1-0.2,0.1-0.3,0.1-0.3l2.6-2.7c0,0,0.1-0.1,0.1-0.1c-0.4,0.8-0.8,1.5-1.2,2.3l-0.6,1.1l-0.3,0.6
						c-0.1,0.2-0.3,0.5-0.5,0.8c-0.3,0.6-0.3,1.1-0.1,1.3C95.3,157.3,95.5,157.4,95.5,157.4z"/>
					<path class="st27" d="M138.8,196c3-0.6,7.8,3,12.6,6c-0.6-0.9-1.8-2.4-2.8-3.8c-1-1.5-1.9-2.7-2.1-3c-0.1,0.9,0.1,2.2-0.9,1.3
						c-2.5-2.6-5.5-6.1-7.3-8.4c-2-3-3.8-6.6-6.3-10c-2.5-2.3-5.2-4.6-8.2-6.4c-0.2-0.1-2.4-0.4-2.6,0c-1-0.7-2-1.2-3-1.8
						c-1-0.5-2-1.1-3-1.6c0,0-0.4,0-0.9-0.1c-0.6-0.1-1.4-0.2-2.3-0.2c-1.9-0.2-4.4-0.1-6.8,0.2l-0.9,0.2c-0.3,0.1-0.7,0.1-0.8,0.2
						c-0.4,0.1-0.9,0.3-1.4,0.4c-1,0.3-2.1,0.7-3.2,1c-2.1,0.7-4.7,1.7-6.2,2.6c-1.4,0.9-3.7,1.9-6.9,3c-3.2,1.1-7.5,2.4-12.3,3.7
						c0.2,0,5.1-0.8,11.2-1.7c1.6-0.2,3.2-0.5,4.8-0.7c1.6-0.2,3.3-0.5,4.8-0.6c0.8-0.1,1.5-0.1,2.2-0.2c0.7-0.1,1.5-0.2,2.1-0.1
						c1.3,0,2.5,0,3.6,0c-0.1-0.1-1-0.3-1.8-0.5c-0.9-0.2-1.8-0.4-2.2-0.4c0.3,0,1,0,1.9,0.1c0.5,0,1,0.1,1.6,0.1
						c0.3,0,0.6,0.1,0.9,0.1c0.3,0,0.7,0.1,0.8,0.1c0.7,0.2,1.4,0.3,2,0.6c0.6,0.2,1.2,0.3,1.6,0.5c1.3,0.2,3.5,0.9,5.4,1.7
						c0.5,0.2,0.9,0.4,1.3,0.6c0.4,0.2,0.8,0.4,1.1,0.6c0.6,0.3,1.1,0.6,1.2,0.7c0.6,0.4-0.3-1,0.1-1.6c2.4,2.5,4.6,5.4,6.9,8.5
						c0.7,0.8,1.4,1.6,2.1,2.4c0,0.4,0,0.7-0.3,0.4c-0.5-0.5-1-0.9-1.5-1.4c0.3,0.4,0.9,1.1,1.6,1.9c0.7,0.9,1.5,1.9,2.3,3
						c1.6,2.1,3.2,4.4,3.9,5.4c-1.3-2.1-2.4-4.1-3.5-6.1c1.4,1.9,2.9,3.8,4.3,5.8l0.2,0.2c3.7,2.3,7.3,4.1,10.7,4.9
						C141.3,201.1,138.2,196.5,138.8,196z"/>
					<path class="st28" d="M96.3,75.9c-2.3,0.9-4.9,2.7-7.3,4.5c-2.4,1.9-4.8,3.8-6.9,4.9c-3.4,1.5-5.4,1.3-7.2,0.6
						c-1.8-0.7-3.3-1.8-5.7-1.8c7.4-8.8,16.1-16.9,26.5-22.7c2.6-1.5,5.3-2.7,8.1-3.8c2.8-1,5.7-2,8.7-2.6c3-0.7,6-1,9.1-1.1
						c1.6,0,3.3,0,5.1,0.3c1.8,0.3,3.7,0.9,5.5,1.8c-1.9-0.6-4.1-1-6.3-1c-2.2-0.1-4.2,0.1-6.1,0.5c-1.9,0.3-3.7,0.8-5.3,1.4
						c-1.6,0.7-2.9,1.4-3.8,2.4c0.1,0.2,0.6,0.2,1.2,0.2c0.6,0,1.4,0,1.9,0.1c-1.3,0.5-2.8,1.3-4.3,2c-1.5,0.8-3,1.5-4.2,2.4
						c-1.3,0.8-2.3,1.6-3,2.3c-0.7,0.7-1,1.3-0.8,1.7c0.5,0.9,2.5,1.3,3.8,2.2c-0.5,0.3-1.1,0.6-1.6,0.9
						C101.5,71.8,99,73.7,96.3,75.9z"/>
					<path class="st29" d="M126.3,67.5c-0.7-0.3-1.7-0.6-3.5-0.5c-0.9,0-2,0.2-3,0.3c-1,0.1-2.1,0.4-3.1,0.5
						c-0.1-0.3-0.3-0.6-0.5-0.9c0.6-0.2,1.2-0.2,1.9-0.3c0.6-0.1,1.2-0.2,1.9-0.3l1.9-0.2c0.6,0,1.2-0.1,1.7-0.1
						c1,0,1.8,0.1,2.5,0.3c0.6,0.2,1.2,0.4,1.7,0.8C127.2,67.2,126.7,67.3,126.3,67.5z"/>
					<path class="st29" d="M113.5,59.8c-0.5-0.1-1.2-0.1-1.9-0.1c-0.6,0-1.1,0-1.2-0.2c0.9-1,2.3-1.7,3.8-2.4
						c1.6-0.6,3.4-1.1,5.3-1.4c1.9-0.4,3.9-0.6,6.1-0.5c2.2,0.1,4.4,0.5,6.3,1c1.3,0.7,2.6,1.6,3.6,2.6c1.1,1,1.9,2.1,2.7,3.2
						c0.7,1.1,1.4,2.3,1.9,3.4l0.8,1.7l0.6,1.7c1.6,4.6,2.2,9.1,2.6,13.6c-0.5-1.5-0.8-3-1.4-4.5c0.2,1.2,0.1,2.2,0,3.1
						c-0.2,0.9-0.4,1.6-0.7,2.4c-0.3,0.7-0.6,1.5-0.8,2.3c-0.2,0.8-0.4,1.8-0.4,3c-0.6-3.5-1.4-7.1-2.4-10.7
						c-1.1-3.6-2.5-7.2-4.5-10.1c-0.5-0.7-1.1-1.4-1.6-2c-0.6-0.5-1.2-1.1-1.8-1.5c-1.3-0.8-2.5-1.2-3.8-1.2c-1.2,0-2.5,0.2-3.7,0.6
						c-1.2,0.4-2.4,1-3.4,1.6c-2.5,0.4-5,1-7.5,1.8c-1.2,0.4-2.4,0.9-3.6,1.4l-1.8,0.8l-0.9,0.4l-0.9,0.5c-1.3-1-3.3-1.3-3.8-2.2
						c-0.2-0.4,0.1-1,0.8-1.7c0.7-0.7,1.7-1.6,3-2.3c1.2-0.9,2.7-1.6,4.2-2.4C110.7,61.1,112.2,60.4,113.5,59.8z"/>
					<path class="st30" d="M141.1,88.7c0-1.2,0.2-2.1,0.4-3c0.2-0.8,0.5-1.6,0.8-2.3c0.3-0.7,0.5-1.5,0.7-2.4c0.2-0.9,0.2-1.9,0-3.1
						c0.6,1.5,0.9,3,1.4,4.5c0.3,5.2,0.1,10.3-0.5,15.4c-0.3,2.6-0.8,5.1-1.4,7.7c-0.7,2.6-1.4,5-2.4,7.5c-0.3,0.6-0.6,1.3-0.9,1.9
						c-3.4,7.2-7.1,12.9-11.9,18.2c1-2.3,1.9-4.6,2.7-7c0.8-2.4,1.4-4.7,2-7.1c3-3.4,5.8-7.3,7.9-12c2.2-4.7,3.7-9.8,4.5-15.3
						c-0.3,2-0.9,2.7-1.5,3.1c-0.6,0.4-1.1,0.6-1.4,1.5c-1.4,3.4-3.6,6.3-5.5,7.7c-2,1.4-3.5,1.5-4-0.2c1.5-6.2,2-13.1,1.5-19.6
						c-0.3-3.3-0.8-6.5-1.7-9.4c-0.8-2.9-2.1-5.5-3.5-6.9c0-0.7-0.1-1.8-0.4-2c-0.9-0.5-1.9-0.7-3.2-0.8c-0.7,0-1.4,0-2.2,0.1
						c-0.8,0.1-1.7,0.2-2.6,0.3c1-0.6,2.3-1.2,3.4-1.6c1.2-0.4,2.4-0.7,3.7-0.6c1.2,0,2.5,0.4,3.8,1.2c0.6,0.4,1.2,1,1.8,1.5
						c0.6,0.6,1.1,1.3,1.6,2c2,2.9,3.5,6.5,4.5,10.1C139.7,81.6,140.5,85.3,141.1,88.7z"/>
					<path class="st22" d="M131.8,119c-0.6,2.4-1.2,4.8-2,7.1c-0.8,2.3-1.7,4.7-2.7,7c-1.2,1.3-2.5,2.7-4,4c0.2,0.2,0.5,0.4,1.1,0.2
						l-2.7,2.9c-1.2,1-3.1,1.3-3.6,3.9l-3.8,4c-1.6,1.1-3.1,1.9-4.4,2l0.8,0.7c-0.8,1.8-2.6,2.7-3.8,4c0.1,0.1,0.4,0.3,0.4,0.6
						c-1.6,1.4-3.4,3.1-5,4.8l-0.8,0.8l-0.5,0.5c-0.3,0.3-0.6,0.7-0.8,1c-1,1.3-1.4,2-1.7,2.3c-0.7,0.4-1.4,0.9-2.1,1.5
						c-5.3,1.7-6.6-0.5-0.9-8.9c0,0-0.2-0.1-0.4-0.4c-0.2-0.3-0.2-0.7,0.1-1.3c0.2-0.2,0.4-0.5,0.5-0.8l0.3-0.6l0.6-1.1
						c0.4-0.8,0.8-1.5,1.2-2.3c8.2-6.1,15.7-16.8,16-17.2c1-1,1.9-2.1,2.9-3.1c2.7-2.9,6.3-6.3,9.2-10.4c2.9-4.1,5-8.9,5.2-13.5
						l0.5-1.5l0.4-1.5c0.5,1.7,2,1.6,4,0.2c1.9-1.4,4.1-4.3,5.5-7.7c0.3-0.9,1.1-2.9,1.7-4.3c0.6-1.4,1.2-2.1,1.2-0.4
						c-0.3,3.1-0.9,6.5-2,9.9c-1.1,3.3-2.6,6.6-4.2,9.2C134.8,116.1,131.6,119.2,131.8,119z"/>
					<path class="st31" d="M263.4,192.8c2.3-2.2,4.3-4.7,6-7.5c-1.6,3.1-4,5.7-4.7,7.7c-1.2,1-2.5,2.3-3.8,3.4
						C261.6,195.2,262.5,194,263.4,192.8z"/>
					<path class="st31" d="M262.1,201c-0.8,0.6-1.7,1.3-2.5,1.8c-0.4-0.6,0.8-2.3,2.6-3.3c-0.5-0.6-1.6,1.3-1.8,1
						c-0.6-0.8,0.3-1.5,1.4-2.2c1.1,1.2,0.9,3.5-0.4,4.4c-0.6,0.4-1.1,0.8-1.7,1.2C260.4,202.9,261.8,201.7,262.1,201z"/>
					<path class="st32" d="M232.8,214.6c-2.8,0.7-4.8,0.7-7.7,1c2.8-2.4,4.9-4.9,6.7-7.4c4-1.2,7.8-2.6,11.7-4.1
						c3.8-1.5,7.7-3.1,11.4-5c-1.1,1-2.3,1.9-3.3,2.9c1.5-0.8,3.1-1.7,4.5-2.3c-0.2,0.3-0.4,0.7-0.4,1l0,0c-1.2,0.6-2.1,1.1-1.6,2
						c0.2,0.3,1.5-1.3,1.8-0.7c-1.8,0.7-3.1,2.2-2.8,2.9c0.8-0.5,1.7-0.9,2.5-1.4c-0.3,0.6-1.7,1.6-2.5,2.5
						c-7.3,3.8-14.6,7.3-22.1,10.4C231.7,215.6,232.3,215.1,232.8,214.6z"/>
				</g>
			</g>
		</g>
	</g>
</g>
</svg>
