<?xml version="1.0" encoding="utf-8"?>
<!-- Generator: Adobe Illustrator 22.1.0, SVG Export Plug-In . SVG Version: 6.00 Build 0)  -->
<svg version="1.1" id="Layer_1" xmlns="http://www.w3.org/2000/svg" xmlns:xlink="http://www.w3.org/1999/xlink" x="0px" y="0px"
	 viewBox="0 0 792 612" style="enable-background:new 0 0 792 612;" xml:space="preserve">
<style type="text/css">
	.st0{opacity:0.85;}
</style>
<g>
	<g>
		<g>
			<g>
				<g class="st0">
					<g>
						<path d="M85,178.2c-0.1,2.3-0.1,4.5-0.2,6.8c0.2-1.1,0.4-2.3,0.8-3.4C85.8,180.1,85.4,179.3,85,178.2z"/>
						<path d="M84.5,191.3c0,0.4,0,0.8-0.1,1.2c0,0.4,0.1,0.7,0.1,1C84.5,192.8,84.5,192,84.5,191.3z"/>
						<path d="M84.5,203.1c0.2-2.1,0.2-4.1,0.1-6C84.5,198.8,84.4,200.8,84.5,203.1z"/>
						<path d="M85.4,193.7c-0.3,0.7-0.6,1.1-0.8-0.1c0,0,0,0,0,0c0,1.2,0.1,2.4,0.1,3.6C84.8,195.8,85.1,194.7,85.4,193.7z"/>
						<path d="M85.4,193.7c0.3-0.7,0.6-1.8,0.8-2.2C85.8,192.2,85.6,192.9,85.4,193.7z"/>
						<path d="M92,197c0.2,1.2-1.7,0.9-1.4,3.2c0.3,5.6,1,10.4,0.8,15.6c0.3,2.4-1.9,6-1.6,8.4c0.2,2.8,0.8,7.7,1.4,10.9
							c0.6,3.2,1.2,4.6,1.2,0.5c0-12.5-0.2-20.7-0.1-32c-0.4-9.2-1-18.1-1.6-27.6c0-2.6,0.1-5.1,0.2-7.6c-0.3,3.3-0.6,6.6-1,10.3
							c-0.3,2.4,0.1,5.1,0.6,8.1C91.3,189.8,92,193.2,92,197z"/>
						<path d="M83.7,128.4c0.4,1.1,1.1,3.4,1.1,3.4c-0.8,5.4,0.3,10.8,1.1,16.3c0.3-0.8,0.5-1.7,0.8-2.5c-0.3-3.2-0.9-3.5-1.1-0.6
							c0.1-0.8,0.2-1.6,0.2-2.4c0-0.8,0.1-1.6,0.1-2.4c0-1.6,0-3.2-0.1-4.7c-0.1-3.1-0.6-6.2-1.1-9.3
							C84.4,126.6,83.7,126.6,83.7,128.4z"/>
						<path d="M84.1,122.5c0.2,1.2,0.4,2.4,0.7,3.6c0.1,0,0.1-0.1,0.1-0.2c-0.3-1.2-0.5-2.4-0.8-3.6
							C84.2,122.4,84.2,122.5,84.1,122.5z"/>
						<path d="M85.3,228.4c-0.4,15.8-0.5,30.7,0.4,45.2c0.5,1.1,1,1.8,0.9,3.3c-0.2,1.2-0.3,2.3-0.4,3.5c0.2,2.1,0.3,4.2,0.6,6.3
							c0.1,0.7,0.3,1.5,0.5,2.2c0,0,0,0,0,0.1c0.4,1.2,0.6,0.8,0.8,0c0.1-0.8,0.2-1.6,0.4-2.3c-0.1,0.4-0.2,1.5-0.4,2.3
							c-0.1,1-0.1,2.2,0,3.5c0.4,1.9,0.9,3.9,1.2,5.9c-0.7-2.2-1.1-4.2-1.2-5.9c-0.3-1.2-0.5-2.4-0.8-3.5c-0.1-0.3-0.2-0.7-0.3-1
							c0.6,4.8,1.4,9.6,2.5,14.4c0.3,1.1,0.7,2.1,1,2.9c1.3,3.3,2.7,6.5,2.8,8.9c0.3,0.8,0.7,1.6,1.1,2.4c0-0.2-0.1-0.4-0.1-0.5
							c0.1,0.4,0.2,0.7,0.3,1c1.6,3.4,3.4,6.6,5.5,9.7c1.7,1.8,3.5,3.5,5.3,5.2c0,0,0.1,0.4,0.3,0.9c0.2,0.5,0.4,1.2,0.6,1.6
							c1,0.4,2.2,1.3,3.5,2.4c-0.9-1.8-1.7-3.6-2.4-5.1c-0.4-1.2-1.6-2-2.8-2.9c-1.2-0.9-2.3-1.9-2.3-3.6c0.1,1.7,1.2,2.7,2.3,3.6
							c1.2,0.9,2.4,1.6,2.8,2.9c0.8,1.5,1.5,3.3,2.4,5.1c2.6,2.3,5.6,5.6,7.8,8.7c-4-2.4-6.2-5.6-7.8-8.7c-1.3-1.1-2.5-2-3.5-2.4
							c-0.2-0.4-0.4-1-0.6-1.6c-0.2-0.5-0.3-0.9-0.3-0.9c-1.8-1.7-3.7-3.4-5.3-5.2c4,6.1,8.9,11.7,14.4,16.9
							c8.7,8.3,18.4,15.5,29.4,20.4c2.7,1.2,5.6,2.2,8.4,3.1c2.9,0.9,5.8,1.5,8.8,2c3,0.5,6.3,0.8,9.7,0.1c1.7-0.3,3.5-0.9,5-1.8
							c1.6-0.9,2.9-1.9,4.2-3.1c2.4-2.3,4.3-4.9,5.9-7.5c1.6-2.6,2.9-5.2,4.4-7.8c1.4-2.6,2.6-5.3,4-8c1.1-2.8,2.3-5.5,3.5-8.3
							c4.3-11.3,7.4-23.2,9.6-35.5c2.4-13.4,3.7-26.6,4.4-39.7c0.7-13,0.9-25.8,1-38.5c0-12.7-0.8-25.6-4.3-38.3
							c-1.8-6.3-4.1-12.5-7.3-18.4c-1.6-2.9-3.4-5.8-5.4-8.5c-2-2.7-4.2-5.3-6.7-7.8c-4.8-4.9-10.8-9-16.9-12
							c-6.2-3-12.6-5.1-19.1-6.6c-6.5-1.5-13-2.5-19.7-3.1c-6.7-0.6-13.6-0.8-20.7-0.3c-5.4,0.4-12.1,1.5-19.1,3.9
							c-7,2.4-14.3,5.9-21,10.9l-1.2,0.9l-1.2,1c-0.8,0.7-1.6,1.3-2.4,2c-1.5,1.4-3,2.7-4.4,4.2c-2.8,2.9-5.3,6-7.5,9.1
							c-4.3,6.2-7.3,12.7-9,18.1c-1.7,7.6-0.9,12.6,0.1,15.3c1.1,2.8,2.4,3.5,3.7,3.4c1.3-0.1,2.5-1.1,3.4-2.1
							c0.5-0.5,0.9-1,1.2-1.4c0.3-0.4,0.5-0.7,0.6-0.9c0.6-0.9,1.1-1.8,1.5-2.6c0.5-0.8,1-1.7,1.5-2.5c0.4-0.8,1-1.6,1.4-2.4
							l0.7-1.2l0.7-1.2c1.8-3.1,3.6-6.3,5.9-9.7c2.3-3.4,5.2-7,9.2-10.5c1-0.9,2.1-1.7,3.2-2.6c1.2-0.8,2.4-1.7,3.7-2.4
							c2.6-1.6,5.6-2.9,9-4.1c-4.6,1.7-6.1,2.2-5.7,1.4c0.1-0.2,0.3-0.5,0.6-0.8c0.3-0.3,0.8-0.7,1.4-1.1c1.1-0.8,2.7-1.8,4.6-2.7
							c3.8-1.9,9.1-3.7,14.7-4.6c5.6-0.9,11.5-0.8,16.2,0.2c3.4,0.7,6.9,1.4,10.6,2.2c3.6,0.7,7.4,1.5,11.2,2.3
							c7.5,1.7,15,3.9,21.4,7.5c3.2,1.8,6.1,3.9,8.9,6.6c2.7,2.6,5.2,5.7,7.3,9.1c2.1,3.4,3.9,7.1,5.3,10.9c1.4,3.8,2.3,7.8,3,11.8
							c1.2,8.1,2.4,16.9,2.7,27.4c-0.2,27.6,0,53.9-4.1,79.4l-0.9,4.8l-0.4,2.4l-0.5,2.3c-0.4,1.6-0.7,3.1-1.1,4.7
							c-0.4,1.5-0.8,3.1-1.3,4.6c-0.8,3.1-1.9,6.1-2.9,9.2c-0.5,1.5-1.1,3-1.7,4.5l-0.9,2.3l-0.4,1.1l-0.5,1.1
							c-1.4,2.9-2.6,5.9-4.3,8.7l-1.2,2.1c-0.4,0.7-0.8,1.5-1.2,2.1c-0.8,1.3-1.5,2.4-2.2,3.3c-0.7,0.9-1.4,1.6-1.9,2
							c-0.5,0.4-0.8,0.5-1.1,0.6c-0.7,0.2-2.8,0.3-5.9-0.3c-6.3-1-12.3-2.8-18.1-5.1c-5.8-2.3-11.3-5.2-16.4-8.6
							c-3.6-2.6-7-5.9-9.9-9.1c-2.9-3.2-5.4-6.5-7.5-9.3c-3.3-4.4-6-8.6-8.1-12.8c-2.1-4.2-3.8-8.6-5.3-13.1
							c1.3,5.1,2.9,9.2,4.8,13.2c2,4,4.4,7.9,7.9,12.4c1.1,1.5,1.4,2.1,1.1,2c-0.3,0-1.2-0.7-2.4-1.6c-1.1-1-2.5-2.3-3.7-3.7
							c-1.2-1.4-2.3-2.8-3-3.9c-0.3-0.4-0.6-1-0.8-1.7c-0.2-0.7-0.3-1.4-0.4-2.1c-0.2-1.4-0.3-2.9-0.9-3.8
							c-1.6-4.4-3.6-8.4-5.2-13.5c-0.8-2.2,1.1-2.2,0.7-3.3c-1.6-7-4.4-12.6-4.4-17.4c0.1-3.6,0.2-6.9,0.3-10.1c0-2,0.1-4-0.1-6.1
							c-0.2-1.3-0.4-2.7-0.6-4c-0.6,1.1-1.3,1.5-2,1.9c0-2,0.5-4.8,0.6-6.8c-0.1,2-0.6,4.8-0.6,6.8c0.7-0.4,1.4-0.8,2-1.9
							c-1.3-9.8-2-21.3-2.5-32c-0.1,0-0.1,0.1-0.2,0.1c0,6.2-0.4,12.3-1.6,18.8c0.5-2.8,1-2.4,1.1,0.8c-0.3,0.8-0.7,1.6-1,2.4
							c-0.5-5.6-0.9-11.1,0.6-16.4c0,0-0.4-2.4-0.5-3.6c0.3-1.8,0.9-1.7,1.5-2c0-1.2,0-2.5,0-3.7c-0.5,1.3-1.2,4-1.7,6.3
							C85.7,226.3,85.3,228.4,85.3,228.4z"/>
						<path d="M88.2,292.6c-0.2-0.8-0.4-1.9-0.6-3c0.5,4,1.2,8.1,2.1,12.1C90,299.4,89,296,88.2,292.6z"/>
					</g>
				</g>
			</g>
		</g>
	</g>
</g>
<g>
	<g>
		<g>
			<g>
				<g class="st0">
					<g>
						<path d="M239.1,345.7l0.8,0.3c-0.1-0.2-0.2-0.4-0.3-0.8C239.5,345,239.3,345.4,239.1,345.7z"/>
						<path d="M240.6,346.2c0,0,0.1,0,0.1,0.1c0.1,0,0.1-0.1,0.2-0.1C240.8,346.2,240.7,346.2,240.6,346.2z"/>
						<path d="M242.1,346.1c-0.2-0.2-0.5-0.2-0.7-0.1C241.6,346.2,241.8,346.2,242.1,346.1z"/>
						<path d="M241.1,345.4c0,0.3,0,0.6-0.2,0.8l0,0c0.2-0.1,0.3-0.1,0.5-0.2C241.3,345.8,241.2,345.6,241.1,345.4z"/>
						<path d="M241.1,345.4c0-0.3-0.1-0.6-0.1-0.7C241,344.9,241.1,345.1,241.1,345.4z"/>
						<path d="M243,338.8c0.2-0.2-0.3,1.7,0.2,1.4c0.9-0.3,1.8-1,2.5-0.8c0.5-0.3,0.3,1.9,0.8,1.6c0.9-0.3,3.8-1.9,2.6-2.3
							c-1.9-0.4-3.2-0.2-4.9-0.3c-1.5,0.4-2.9,1.1-4.3,1.5c-0.4,0-0.7-0.2-1-0.4c0.4,0.4,0.8,0.7,1.2,1.1
							C240.6,341.3,241.8,339,243,338.8z"/>
						<path d="M233,343.8c0.2-0.2,0.5-0.6,0.5-0.6c0.6,1.4,1.3,1,2.1,0.5c-0.1-0.3-0.1-0.7-0.2-1c-0.4,0.1-0.5,0.6-0.2,1
							c-0.7-1.2-1.5-1.5-2.3-1.4C232.8,342.9,232.8,343.5,233,343.8z"/>
						<path d="M232.4,342.5c0.2-0.1,0.3-0.1,0.5-0.1c0-0.1,0-0.1,0-0.2C232.7,342.3,232.5,342.4,232.4,342.5L232.4,342.5z"/>
						<path d="M245.6,345.3c1.9,0.6,3.6,1.4,5.1,2.5c0.3-0.3,0.6-0.6,0.7-0.3c-0.1,0.4-0.1,0.6,0,0.8c0.2,0.2,0.4,0.3,0.6,0.5
							c0.1,0,0.2,0,0.3,0l0,0c0.3-0.1,0.4-0.3,0.5-0.6c0-0.2,0.1-0.5,0.2-0.7c-0.1,0.2-0.1,0.4-0.2,0.7c0,0.3-0.1,0.5,0,0.7
							c0.3,0,0.5,0.1,0.7,0.4c-0.4,0-0.6-0.1-0.7-0.4c-0.2,0-0.4,0-0.5,0c-0.1,0-0.1,0-0.2,0.1c0.4,0.4,0.8,0.8,1.2,1.2
							c0.1,0,0.3,0.1,0.4,0.1c0.5,0.1,1.1,0.2,0.5,0.9c0.1,0.1,0.1,0.1,0.2,0.2c0,0,0.1-0.1,0.1-0.1c0,0.1,0,0.1-0.1,0.2
							c0.2,0.3,0.5,0.6,0.7,1c0.5,0,1.2,0,1.7,0c0,0-0.5,0.4-0.8,0.6c0.6-0.1,1-0.2,1.3-0.1c0.5-0.4,0.9-0.9,1.1-1.2
							c0.3-0.3-0.2-0.3-0.7-0.2c-0.5,0-0.9,0-0.2-0.5c-0.7,0.6-0.3,0.6,0.2,0.5c0.5,0,1.1-0.1,0.7,0.2c-0.2,0.3-0.7,0.8-1.1,1.2
							c0.6,0.2,0.7,0.7-0.2,1.4c-1.2-0.1-0.6-0.7,0.2-1.4c-0.3-0.1-0.8-0.1-1.3,0.1c0.3-0.2,0.8-0.6,0.8-0.6c-0.5-0.1-1.1-0.1-1.7,0
							c0.4,0.6,0.8,1.3,1.1,1.9c0.9,2.1,1.5,4,1.8,6c0.1,1,0.1,2-0.2,3c-0.3,1-0.9,1.9-1.9,2.4c-0.2,0.1-0.4,0.2-0.6,0.2
							c-1.1,0.4-2.4,0.3-3.7-0.1c-1.2-0.4-2.4-1-3.3-1.7c-1-0.8-1.7-1.3-2.2-1.7c-0.6-0.4-1-0.7-1.5-1c-0.4-0.4-0.8-0.9-0.9-1.5
							c-0.1-0.6,0-1.3,0.8-1.9c0.6-0.4,0.8-0.4,0.7-0.4c0,0-0.1,0-0.2,0c0,0-0.1,0-0.1,0l-0.1,0c0,0,0,0,0,0.1l-0.1,0.1
							c-2.7-1.1-5.4-2.1-8-3.1l-0.1-0.1l-0.2-0.1c0,0-0.1-0.1-0.1-0.1c0,0,0,0-0.1,0l0,0l0,0c0,0,0,0,0,0c0.1,0.1,0.1,0.1,0.1,0.1
							l0,0c-0.1-0.1-0.2-0.3-0.3-0.4c-0.1-0.2-0.3-0.4-0.4-0.6c-0.5-0.7-1-1.1-1.1-1.1c-1.5-1-3.2-0.7-4.1-0.1
							c-0.2,0.1-0.4,0.2-0.6,0.4c-0.2,0.1-0.3,0.3-0.4,0.4c-0.3,0.3-0.4,0.6-0.6,1c-0.3,0.7-0.4,1.6-0.6,2.7c-0.2,1.1-0.4,2.2-0.9,4
							c0.2-1.2,0.7-1.5,1.2-1.4c0.5,0.1,1,0.6,1.5,1.4c0.9,1.5,1.5,3.8,1,7c-0.5,2.4,0.3,4.7,1.9,6.6c1.5,1.9,3.7,3.4,5.9,4.5
							c2.2,1,4.5,1.7,6.6,2.3c1.1,0.3,2.1,0.5,3.2,0.9c0.5,0.1,1,0.3,1.5,0.4l1.5,0.5c2.1,0.8,4,0.5,6.1,0.4
							c5.3,0.6,9.5-1.5,12.6-5.2c2-2.4,3.3-5.5,3.7-8.6c0.5-3.1,0.4-6.3-0.1-9.6c-0.3-1.6-1.2-3-2.4-4.3c-1.1-1.3-2.4-2.4-3.6-3.4
							c-1.3-1.5-1.6-3.5-2.7-4.8c-1.7-2-4-3.2-6.3-3.8c2.1,1.2,3.8,2,5.8,3.9c0.6,0.7-0.2,0.7-1.2,0.5c-1.1-0.1-2.4-0.4-3-0.6
							c-0.7,0,0.6-1.8-0.1-1.9c-0.8-0.7-2.2-0.7-3.3-0.9c-0.6,0.1,0.7-1.3,0.3-1.3c-0.8-0.3-1.8-0.1-2.6,0.2c-0.8,0.2-1.4,0.4-1.7,0
							c-0.1-0.1-0.2-0.3-0.3-0.4c-0.1-0.1-0.2-0.3-0.2-0.4c-0.2-0.2-0.3-0.5-0.5-0.7c-0.2-0.2-0.5-0.4-0.8-0.5
							c-0.2,0.1-0.5,0.1-0.8,0.2c-0.1,0.6-0.3,1.3-0.6,2c-0.2-0.2-0.4-0.8-0.6-1c0.2,0.2,0.4,0.8,0.6,1c0.3-0.7,0.5-1.4,0.6-2
							c-1.8,0.4-3.7,0.8-5.3,1.2c0,0.1,0,0.1,0,0.2c0.9,0.1,1.6,0.5,2,1.9c-0.2-0.5,0-1,0.5-1c0,0.3,0,0.7-0.1,1
							c-0.9,0.2-1.7,0.5-1.9-1c0,0-0.4,0.3-0.6,0.5c-0.1-0.3,0.1-0.9,0.2-1.4c-0.2,0-0.3,0-0.5,0C245,343.8,245.6,345.3,245.6,345.3
							z"/>
						<path d="M252.8,348.8c-0.1,0-0.3,0-0.4-0.1c0.4,0.3,0.7,0.7,1,1C253.9,349,253.4,348.9,252.8,348.8z"/>
					</g>
				</g>
			</g>
		</g>
	</g>
</g>
<g>
	<g>
		<g>
			<g>
				<g class="st0">
					<g>
						<path d="M581.6,286.4c1.2,1.7,2.6,3.2,3.9,4.8c1.4,1.5,2.8,3.1,4.3,4.5c2.9,2.9,6.2,5.6,9.6,8c-3.3-2.5-6.4-5.3-9.2-8.5
							C586.5,291.2,584.4,289.4,581.6,286.4z"/>
						<path d="M619.4,314.5c1.4,0.6,2.7,1.1,4,1.6c1.2,0.4,2.5,0.8,3.5,1.1C624.4,316.4,621.9,315.5,619.4,314.5z"/>
						<path d="M659.8,326.6c-7.2-2-14-3.8-20.6-5.7C644.9,322.8,651.7,324.8,659.8,326.6z"/>
						<path d="M627.8,316.7c2.4,1.1,3.5,1.8-0.7,0.6c-0.1,0-0.1,0-0.2-0.1c4,1.3,8,2.5,12.2,3.7C634.9,319.5,631,318.1,627.8,316.7z
							"/>
						<path d="M627.8,316.7c-2.3-1.1-5.9-2.8-7.1-3.4C622.7,314.4,625.1,315.5,627.8,316.7z"/>
						<path d="M639.9,313.5c2,0.5,2.7,1.1,3.8,1.9c1.1,0.8,2.8,1.6,6.8,2.6c18.9,4.7,35.4,7.5,53.2,11.4c4.1,0.7,9.3,2.3,14.4,3.8
							c5.1,1.5,10.2,2.8,14.2,3.1c0.7,0.1,1.5,0.1,2.3,0.2c0.4,0,0.8,0.1,1.2,0.1c0.4,0,0.8,0,1.2,0c1.2,0,2.5,0,3.8-0.1
							c1.3-0.1,2.6-0.3,3.8-0.5c0.6-0.1,1.2-0.3,1.8-0.4l0.9-0.2l0.2-0.1c0.1,0,0.2,0,0.1-0.1l-0.2-0.5c-1.3-3.1-2.4-5.8-3.4-8
							c-1.5-3.7-2.7-6.9-3.5-8.9c-1.7-4.2-1.8-3.5,1.3,6.5c0.3,0.8,0.5,1.6,0.8,2.3c0.1,0.3,0.2,0.7,0.3,1c0.2,0.7,0.5,1.3,0.7,2
							c0.5,1.3,0.9,2.4,1.2,3.4l0.1,0.4c0,0.1-0.2,0.1-0.3,0.1l-0.7,0.1c-0.5,0.1-1,0.2-1.5,0.2c-1,0.1-2,0.2-3,0.2
							c-0.5,0-1,0-1.5,0c-0.2,0-0.5,0-0.7,0l-1.1-0.1c-1-0.1-1.9-0.2-2.9-0.2c-1-0.1-1.9-0.2-2.8-0.3c-7.6-1-15-2.6-22.5-4.1
							c-14.9-3.1-29.6-6.1-45.9-10.2c-7.8-1.8-15.5-3.8-23.1-5.9c-7.6-2.1-15-4.5-22-7.6c-7-3.1-13.8-6.8-19.7-11.8
							c-1.5-1.2-2.9-2.5-4.3-3.8c-1.3-1.4-2.8-2.7-4-4.2c-1.3-1.4-2.5-3-3.8-4.6c-1.2-1.6-2.4-3.2-3.5-4.9
							c-4.9-7.5-8.3-15.4-11.2-23.4c3.6,10.5,8.3,21.1,15.8,31.2c2.5,3.3,5.4,6.5,8.9,9.5c3.5,3,7.5,5.6,12.1,8
							C616.4,306.4,627.3,309.9,639.9,313.5z"/>
						<path d="M495.4,211.4c3.4-2.4,10.2-7.3,10.2-7.3c8.2-4.4,16.4-9.4,24.5-14.7c1.9-1.3,3.9-2.5,5.8-3.8c1.8-1.2,3.6-2.4,5.3-3.6
							l2.7-1.8l1.4-0.9l0.3-0.2l0.2-0.1l0.1-0.1c0,0,0.1,0,0.1,0l0.3,0.7c0.7,2,1.4,4,2,6.1c-0.3-1.4-0.5-2.9-0.8-4.3
							c-0.2-0.8-0.3-1.5-0.5-2.3l-0.2-1.2c-0.1-0.4-0.1-1-0.5-0.7c-4.7,3.1-7.2,4.9-7.6,5.4c-0.4,0.5,1.4-0.4,5.1-2.5
							c-8.2,4.6-18.4,10.7-27.6,16.4c-9.4,5.8-18.5,11.7-27.8,17.7C490,213.9,490,214.6,495.4,211.4z"/>
						<path d="M477.7,221.3c3.6-2.4,7.3-4.8,10.8-7.1c-0.1,0-0.3,0.1-0.5,0.1c-3.6,2.4-7.2,4.8-10.8,7.2
							C477.4,221.5,477.5,221.4,477.7,221.3z"/>
						<path d="M747.9,340.9c1.4-0.1,2.7-0.3,4-0.5c0.7-0.1,1.3-0.2,1.9-0.3l0.5-0.1l0.2,0l0.1,0l0.1,0c0,0,0,0,0,0
							c-0.1-0.3-0.1-0.5-0.2-0.8c-1.1-3.3-2.2-6.6-3.3-9.9c-0.5-1.6-1.1-3.3-1.6-4.9c-0.5-1.6-1-3.1-1.5-4.7
							c-1.9-6.2-3.8-12.5-5.3-18.7c-3.3-12.4-5.5-25-6.3-37.5c-0.3-6.3-0.4-12.5,0.3-18.7c0.2-3.1,0.7-6.1,1.2-9.2
							c0.2-1.5,0.6-3,0.9-4.5c0.3-1.5,0.6-3,1.1-4.5c0.9-2.9,2.3-5.6,4.2-7.8c1-1.1,2.1-2,3.4-2.6c1.3-0.6,2.7-0.7,4-0.3
							c1.3,0.3,2.5,1.1,3.4,2.2c0.9,1.1,1.5,2.4,2,3.8c0.9,2.8,1.1,5.8,0.9,8.8c0.1,1,0.2,1.9,0.3,2.8c0,0.9,0,1.8,0,2.7
							c0,0.9,0,1.9-0.1,2.9c-0.1,1.1-0.3,2.2-0.5,3.5c-0.2,1-0.5,1.9-0.8,2.9l-0.8,2.9c-0.6,1.9-1.2,3.8-1.8,5.7
							c-2.2,7.1-5.2,13.9-8.7,20.3c-0.6,1.1-1.2,2.3-1.8,3.4c-0.6,1.1-1.3,2.3-1.9,3.4c0,0-0.1,0.1-0.1,0.2c-2,3.6-1.1,2.8,0.5,0.7
							c1.6-2.4,3.2-4.5,4.5-6.4c-0.4,0.6-1.1,1.7-2,2.9c-0.8,1.2-1.8,2.5-2.5,3.5c-1,1.4-2.1,2.9-3.3,4.5c-1.2,1.6-2.4,3.3-3.8,5.1
							c-3.9,5.6-8.2,11.2-13.2,16.6c5.3-6.2,9.6-11.8,13.2-16.6c1.2-1.8,2.4-3.5,3.5-5.3c1.1-1.8,2.2-3.5,3.2-5.3
							c0.6-1,1.1-2.1,1.7-3.2c-4.3,7.3-9.2,14.2-14.4,20.8c-5.3,6.6-10.9,12.9-17.2,18.4c-1.4,1.3-2.9,2.5-4.2,3.6
							c-0.7,0.6-1.4,1.1-2,1.6c-0.7,0.5-1.3,1-1.9,1.4c-4.9,3.5-10.3,6.4-15.6,7.8c-5.3,1.4-10.2,1.5-13.8,0.8
							c-2.9-0.2-5.8-0.7-8.6-1.5c0.5,0.2,1.1,0.4,1.6,0.6c-0.6-0.2-1.2-0.4-1.7-0.5c-0.5-0.2-1-0.4-1.4-0.5
							c-5.9-1.9-11.5-4.8-16.7-8.4c-5.2-3.5-10-7.7-14.7-12.1c-6.3-5.4-12.6-11.3-19.2-16.9c0,0-1-1.1-2.2-2.4
							c-1.2-1.3-2.8-2.9-3.8-4c-3.1-1.8-7.3-4.6-12.4-7.6c5.7,4.2,10.3,8.5,14.5,12.6c5.9,6.3,15.3,11.9,21.5,20.2
							c-6.2-8.3-15.6-14-21.5-20.2c-4.2-4.2-8.8-8.5-14.5-12.6c-5.3-3.1-11.5-6.3-18.1-9.1c-3.3-1.4-6.6-2.7-9.9-3.8
							c-3.4-1.1-6.9-1.8-10.3-1.7c4.3-0.6,8.4,0.2,12,1.2c3.6,1.1,6.9,2.4,10,3.8c6.3,2.8,11.6,6.2,16.4,9.6c5.1,3,9.3,5.7,12.4,7.6
							c1,1,2.6,2.6,3.8,4c1.2,1.4,2.2,2.4,2.2,2.4c6.6,5.6,12.9,11.5,19.2,16.9c-9.1-8.6-17.6-18.1-28-26
							c-10.4-7.9-22.1-14.1-34.7-18.3c-3.6-1.2-7.5-2.1-11.6-2.1c-2.1,0-4.2,0.3-6.2,1c-2,0.7-3.9,1.7-5.5,3
							c-3.3,2.6-5.7,6.1-7.3,9.7c-0.8,1.8-1.4,3.8-1.8,5.7c-0.4,1.9-0.6,3.9-0.7,5.8c-0.2,3.9,0.1,7.7,0.5,11.4
							c0.4,3.7,0.9,7.3,1.4,11c0.6,3.7,1.4,7.4,2.8,11.1c1.4,3.7,3.5,7.2,6.4,10.1c2.9,2.9,6.3,5,9.8,6.7c3.5,1.6,7.1,2.8,10.6,3.8
							c7,2,14.2,3.7,21.3,5c14.4,2.6,29,3.9,43.5,3.8c7.3-0.1,14.6-0.5,21.9-1.3l5.4-0.6c1.9-0.3,3.8-0.6,5.7-1.1
							c0.5-0.1,1-0.3,1.5-0.4c0.5-0.2,1.1-0.4,1.6-0.6c1.1-0.4,2.1-0.9,3.1-1.5c2-1.2,3.6-2.8,4.8-4.7c1.2-1.9,1.8-4.2,1.8-6.5
							c0-2.3-0.5-4.6-1.3-6.7c-1.6-4.1-3.6-7-5.6-10.1c-3.9-6.2-8.2-12.3-12.8-18c-9.3-11.5-19.9-21.9-31.7-31.1
							c-5.9-4.5-12.1-8.8-18.5-12.7c-1.6-1-3.3-1.9-4.9-2.8l-1.2-0.7c-0.5-0.3-1-0.6-1.5-0.8l-3.2-1.6c-2.1-1.1-4.3-2.2-6.4-3.2
							l-3.3-1.5l-1.6-0.8l-0.8-0.4l-0.4-0.2c-0.1,0-0.1-0.1-0.2-0.1l-0.1,0.1c-1.1,3.6-2.2,7.3-3.3,10.9c-0.6,1.8-1.1,3.7-1.7,5.5
							c-0.5,1.5-0.9,3-1.4,4.4c-1.8,5.5-3.8,11-6.1,16.4c-4.6,10.7-10.3,21-18.4,29.5c-4,4.3-8.5,8-13.3,11.2c-2.5,1.5-5,2.9-7.7,4
							c-1.3,0.6-2.7,1-4,1.5c-0.7,0.2-1.4,0.4-2.1,0.6c-0.7,0.2-1.4,0.4-2.1,0.5c-5.6,1.3-11.5,1.5-17.3,0.9
							c-5.9-0.7-11.7-2.2-17.4-4.3c-4.1-1.6-8-3.3-10.3-5.7c-1.1-1.2-1.9-2.5-2.5-4.2c-0.6-1.7-0.9-3.6-1.1-5.6
							c-0.2-2-0.3-4.3-0.3-6.5c-0.1-2.2-0.1-4.5-0.2-6.7c-0.1-4.5-0.1-8.9,0-13.4c0.2-17.8,1.6-35.5,4-52.8l-10.1-1
							c-0.8,11.2-2.6,22.2-5.5,32.8c-2.9,10.6-7,20.7-12.4,30c-5.4,9.3-12,17.7-19.8,24.8c-1.9,1.8-4,3.5-6,5l-1.3,1
							c-0.3,0.2-0.6,0.4-0.8,0.6c-0.6,0.4-1.1,0.8-1.7,1.1c-1.1,0.7-2.3,1.4-3.5,1.9c-0.6,0.3-1.2,0.6-1.8,0.8l-0.9,0.4l-0.2,0.1
							c0,0-0.1,0.1-0.1,0l0-0.1l0-0.5c0.1-2.5,0.1-4.8,0.1-7.1l0-1.7l-0.1-3.3c-0.1-2.5-0.2-4.9-0.3-7.4c-0.3-6.7-0.8-13.4-1.4-20
							c-0.3-3.3-0.7-6.6-1-9.9c-0.4-3.4-0.9-6.8-1.5-10.2c-1.3-6.8-3.1-13.8-6.6-20.5c-1.7-3.4-3.8-6.7-6.5-9.6
							c-2.7-3-5.9-5.6-9.5-7.6c-3.6-2-7.6-3.3-11.6-3.9c-4-0.6-7.9-0.6-11.8-0.1c-7.7,1-14.8,3.7-21.1,7.7
							c-6.2,3.9-11.4,8.8-16,13.8c-4.6,5.1-8.6,10.3-12.5,15.4l11.7,10.3c10.7-10.4,21.5-20.9,31.6-32.5c5-5.8,9.9-11.8,14.3-18.1
							c4.5-6.3,8.6-13,12.2-20c3.5-7,6.5-14.3,8.8-22c2.3-7.6,3.8-15.6,4.4-23.6c0.1-1,0.1-2,0.2-3l0.1-3c0-2-0.1-4.1-0.2-6.1
							l-0.2-3.1c0-0.5-0.1-1-0.1-1.5l-0.2-1.6c-0.3-2.2-0.8-4.3-1.4-6.5c-0.6-2.2-1.4-4.4-2.5-6.6c-1.1-2.2-2.5-4.4-4.3-6.5
							c-1.8-2.1-4.1-4-6.8-5.3c-0.6-0.4-1.4-0.6-2-0.9c-0.7-0.3-1.4-0.5-2.1-0.7c-1.4-0.4-2.9-0.6-4.2-0.8c-2.7-0.3-5.2-0.1-7.4,0.2
							c-2.2,0.3-4.1,0.6-6.1,1c-3.9,0.7-7.9,1.7-11.9,2.9c-7.9,2.4-15.8,6-22.9,11.7c-3.5,2.8-6.7,6.2-9.4,10
							c-2.7,3.8-4.7,7.9-6.3,12c-3.1,8.3-4.3,16.7-5,24.7c-0.3,4-0.5,7.9-0.7,11.8c-0.1,3.8-0.3,7.7-0.4,11.6
							c-0.3,7.7-0.4,15.5-0.5,23.2c-0.2,15.5-0.2,31.2,0.1,46.9c0.4,23.5,2,53.8,4.2,86.2l24.5-0.5c0.9-31.3,1-64.5,0.2-95.5
							c-0.7-30.9-2.2-59.5-3.7-81.3c-2.2-22.2-4.4-35.8-6.3-43.8c-1.9-8-3.5-10.3-4.7-9.7c-2.4,1.2-3.5,13.8-3.6,15.9
							c-1.4,27.4-0.6,51.5,0.3,82.8c0.4,15.6,0.8,33,0.7,53.3c-0.1,20.4-0.6,43.8-2.3,71.3c1-18.4,1.6-24.5,2-22.1
							c0.4,2.4,0.6,13.2,0.4,28.6l9.5-0.2c-1.3-16-2.7-37-3.4-58.5c-0.8-21.5-0.9-43.6,0.1-61.7c0.6-11.1,1.2-22.7,1.9-34.8
							c0.2-3,0.4-6,0.6-9.1c0.2-3.1,0.4-6.1,0.6-9.1c0.5-6,1.2-11.8,2.5-17.1c1.3-5.3,3.3-10.1,6.2-13.9c2.9-3.8,6.7-7,11.6-9.5
							c4.8-2.5,10.4-4.5,16.4-5.8c1.5-0.3,3-0.7,4.6-0.9c1.6-0.3,3.1-0.5,4.2-0.6c1.2-0.1,2.1-0.1,2.6,0c0.6,0.1,0.7,0.2,1,0.3
							c0.3,0.2,0.6,0.3,1,0.8c0.4,0.5,0.9,1.2,1.3,2c0.9,1.8,1.7,4.2,2.1,6.8c0.1,0.7,0.2,1.3,0.3,2l0.2,2.3
							c0.2,1.5,0.2,3.1,0.2,4.6c0.1,1.5,0,3.1,0,4.7c-0.1,1.6-0.2,3.1-0.3,4.7c-1.3,12.6-5.4,25.2-11.6,37.1
							c-6.1,11.8-14.3,22.9-23.4,33.4c-9.1,10.5-19.2,20.4-29.4,30.4l15.7,13.9c5.2-6.8,10.2-13.3,15.6-18.3
							c2.7-2.6,5.5-4.7,8.4-6.5c2.8-1.7,5.8-3,8.8-3.8c2.9-0.8,5.8-1.2,8.5-1.1c2.7,0.1,5.2,0.7,7.4,1.7c2.2,1.1,4.2,2.6,6,4.8
							c1.8,2.1,3.4,4.8,4.7,8c1.3,3.2,2.4,6.7,3.2,10.6c0.8,3.8,1.4,7.8,2,12.2c1.1,8.7,1.9,17.7,2.5,27c0.1,2.5,0.2,4.9,0.3,7.4
							l0.1,4.2c0.1,2.4,0.1,4.9,0.2,7.3c0.1,9.7,0,19.8-0.1,29.7c1.9-0.7,4.4-1.9,6.7-3l6.8-3.1c2.3-1,4.5-2.1,6.8-3.1l1.7-0.8
							l1.7-0.9l3.5-1.9c0.6-0.3,1.2-0.6,1.7-1l1.7-1.1l3.4-2.3c1.1-0.7,2.3-1.5,3.4-2.4l2.1-1.6c2.5-2,4.9-4,7.2-6.2
							c9.2-8.6,16.9-18.7,23-29.5c6.1-10.8,10.5-22.4,13.5-34.1c3.1-11.7,4.8-23.6,5.6-35.5l-24.2-2.3c-2.8,21.5-4,43.2-3.6,64.9
							c0,2.7,0.1,5.4,0.2,8.1l0.2,4.1c0.1,1.3,0.1,2.8,0.2,4.3c0.2,3.1,0.7,6.7,2,10.7c0.7,2,1.6,4.1,2.8,6.1c1.3,2,2.9,4,4.5,5.5
							c3.4,3.1,6.8,4.9,9.9,6.3c1.5,0.7,2.9,1.3,4.3,1.8c1.4,0.5,2.8,1,4.2,1.5c5.7,1.9,11.7,3.3,17.9,4c6.2,0.7,12.7,0.7,19.1-0.5
							c1.6-0.2,3.2-0.7,4.8-1c1.6-0.4,3.1-0.9,4.7-1.4c1.5-0.6,3.1-1.1,4.5-1.7c1.5-0.7,3-1.3,4.4-2c5.7-2.9,10.9-6.5,15.6-10.5
							c4.7-4,8.8-8.5,12.5-13.3c7.5-9.7,12.7-20.3,16.9-30.9c2.1-5.3,3.9-10.7,5.6-16l0.6-2l0-0.1c0,0,0,0,0,0l0,0l0,0l0-0.1
							l0.1-0.3l0.1-0.6c0.2,0,0.5,0.2,0.7,0.3l0.2,0.1l0.1,0l0,0l0.2,0.1l4.2,2.4c1.4,0.8,2.8,1.7,4.1,2.5c1.4,0.8,2.8,1.7,4.1,2.6
							l4,2.7l3.9,2.9c5.2,3.9,10.3,8,15,12.4l1.8,1.7l1.7,1.7c1.2,1.2,2.3,2.3,3.5,3.5l3.4,3.6c1.1,1.2,2.2,2.5,3.2,3.7
							c2.2,2.4,4.2,5.1,6.2,7.6c1.9,2.7,4,5.3,5.8,8c1.9,2.7,3.6,5.5,5.3,8.3c0.8,1.3,1.4,2.4,1.8,3.4l0,0.1c0,0,0,0,0,0l0,0.1
							l0,0.1c0,0.1,0,0.2,0,0.2c0,0.3-0.1,0.7-0.4,0.9c-0.1,0-0.1,0.1-0.2,0.1l-0.1,0l-0.1,0l-0.1,0c-1,0.3-2.2,0.6-3.6,0.8
							l-1.1,0.2l-1.3,0.2l-2.5,0.3c-1.7,0.2-3.4,0.3-5.1,0.5c-1.7,0.2-3.4,0.3-5.1,0.4c-1.7,0.1-3.4,0.2-5.1,0.3
							c-13,0.6-25.7,0.1-38-1.4c-6.1-0.7-12.2-1.7-18.1-2.9c-2.9-0.6-5.9-1.2-8.8-2c-2.9-0.7-5.7-1.4-8.1-2.2
							c-2.5-0.8-4.7-1.8-6.5-2.8c-0.9-0.5-1.7-1.1-2.4-1.7c-0.7-0.6-1.3-1.2-1.9-1.9c-2.3-2.7-3.9-7.1-5-12.4
							c-0.5-2.6-1-5.5-1.4-8.3c-0.4-2.8-0.8-5.5-1-8c-0.2-2.5-0.2-4.9,0.1-7c0.1-0.5,0.2-1.1,0.2-1.6c0.1-0.5,0.2-1,0.3-1.4
							c0.3-1,0.6-1.9,1-2.8c1.2-2.6,3.1-4.5,4.9-5.5c0.9-0.4,1.8-0.7,3.1-0.8c1.2-0.1,2.6,0,4.2,0.3c1.6,0.3,3.3,0.8,5.1,1.4
							c1.8,0.6,3.7,1.3,5.5,2.1c3.7,1.5,7.2,3.1,10.6,5c6.8,3.7,13,8,18.5,12.6c5.5,4.7,10.6,9.8,15.5,14.6
							c3.9,3.8,7.8,7.6,11.9,11.2c4.1,3.6,8.6,7.1,13.3,10.1c4.7,3,9.7,5.6,15.1,7.5c2.6,1,5.4,1.7,8.2,2.3c2.8,0.5,5.7,0.9,8.6,1
							c5.8,0.2,11.5-0.6,16.8-2.3c5.3-1.7,10.1-4.1,14.4-6.8c8.7-5.6,15.6-12.5,21.7-19.5c-6.9,7.8-14.4,14.7-23,19.9
							c-4.3,2.6-9,4.8-14,6.2c-5,1.5-10.3,2.2-15.6,2c-5.3-0.2-10.6-1.2-15.5-2.9c-5-1.7-9.8-3.9-14.3-6.7
							c-4.5-2.7-8.9-5.9-13.1-9.4c-4.2-3.5-8.2-7.3-12.2-11.2c-5.3-5.2-6.9-6.9-6.1-6.5c0.8,0.4,3.9,3,8.2,6.8
							c4.4,3.7,10,8.6,16.1,12.9c3.1,2.1,6.2,4.1,9.2,5.8c3,1.6,5.9,3,8.4,4c4.3,1.6,9.8,4,15.9,5.1c6.1,1.2,12.6,0.9,17.2-0.5
							c5.1-1.3,9.8-3.3,14.1-5.8c4.3-2.5,8.1-5.4,11.7-8.6c7.2-6.3,13.3-13.6,19.3-21.6c5-7,5.8-5.2,8.2-8.8
							c7.8-11.4,13-22.8,16.3-33.5c0.5-1.3,0.7-2.7,1.1-4c0.4-1.3,0.7-2.6,1-3.9c0.3-1.3,0.6-2.6,0.8-3.8c0.2-1.3,0.4-2.5,0.6-3.7
							c0.2-1.2,0.4-2.4,0.5-3.7c0.1-1.2,0.3-2.4,0.4-3.6c0.1-1.2,0.2-2.3,0.3-3.5c0-0.6,0.1-1.1,0.1-1.7c0-0.6,0-1.1,0.1-1.7
							c0-0.9,0-1.7,0.1-2.6l0-1.3c0-0.5,0-0.9,0-1.4c-0.1-1.8-0.3-3.7-0.8-5.5c-0.5-1.9-1.2-3.8-2.5-5.7c-0.6-0.9-1.4-1.8-2.4-2.6
							c-1-0.8-2.1-1.5-3.2-1.9c-0.3-0.1-0.6-0.2-0.9-0.3l-0.9-0.2c-0.6-0.1-1.2-0.3-1.9-0.3c-0.6,0-1.3-0.1-1.9,0.1
							c-0.6,0.1-1.3,0.2-1.9,0.4c-2.4,0.7-4.3,2-5.8,3.4c-1.5,1.4-2.6,2.9-3.6,4.4c-1,1.5-1.7,3-2.4,4.6c-0.4,1-0.8,2-1,3.1
							c-0.2,0.5-0.3,1-0.4,1.5l-0.3,1.4c-0.4,1.8-0.9,3.7-1.2,5.6c-0.3,1.9-0.6,3.8-0.9,5.7c-0.2,1-0.2,1.9-0.3,2.9
							c-0.1,1-0.1,2-0.2,3c-0.2,2.5-0.1,5-0.1,7.5c0,2.5,0.2,5.1,0.3,7.6c0.5-4,1.1-5.5,1.9-6.8c-0.1,1.8,0,3.8,0,5.9
							c0,1,0,2.1,0,3.2c0.1,1.1,0.1,2.2,0.2,3.2c0.1,1.1,0.1,2.2,0.2,3.2c0.1,1.1,0.2,2.1,0.3,3.2c0.2,2.1,0.3,4,0.6,5.8
							c-0.3-1.8-0.4-3.8-0.6-5.8c-0.1-1-0.2-2.1-0.3-3.2c-0.1-1.1-0.1-2.2-0.2-3.2c-0.1-1.1-0.1-2.2-0.2-3.2c0-1.1,0-2.1,0-3.2
							c0-2.1-0.1-4.1,0-5.9c-0.8,1.3-1.4,2.8-1.9,6.8c0.1,0.8,0.1,1.6,0.2,2.4c0.1,0.8,0.2,1.6,0.3,2.4c0.2,1.6,0.3,3.3,0.6,4.9
							c0.5,3.3,0.9,6.6,1.6,9.8c1.2,6.6,2.9,13.2,4.7,19.8c1.8,6.6,3.9,13.1,6.1,19.7l1.7,4.9l0.7,2l0.7,1.9
							c0.9,2.5,1.9,5.1,2.8,7.6l0.1,0.4l0.1,0.2l0,0.1c0,0-0.1,0-0.1,0l-0.8,0.2c-0.5,0.1-1,0.2-1.6,0.3l-1.6,0.3l-1.6,0.2
							c-2.2,0.2-4.4,0.3-6.6,0.3c-0.3,0-0.6,0-0.8,0l-0.9,0c-0.7,0-1.3-0.1-2-0.1c-1.3-0.1-2.7-0.2-4-0.4c-2.7-0.3-5.3-0.7-8-1.1
							c0.1,0.1,0.3,0.2,0.5,0.3c2.7,0.5,5.3,0.9,8,1.2c1.3,0.2,2.7,0.3,4,0.4c0.7,0.1,1.3,0.1,2,0.2c0.6,0,1.2,0.1,1.7,0.1
							c2.3,0.1,4.6,0.1,7-0.1l1.8-0.1l1.8-0.2c0.6-0.1,1.2-0.2,1.8-0.3l0.9-0.1c0.1,0,0.1-0.1,0-0.1l-0.1-0.2l-0.1-0.4
							c-0.7-2.2-1.4-4.5-2.1-6.8c-0.3-1.2-0.7-2.3-1-3.5c-0.4-1.3-0.7-2.5-1.1-3.8c-1.5-5.4-2.9-10.9-4.2-16.6
							c1.1,4.8,1.5,7,1.2,6.6c-0.3-0.4-1.4-3.4-2.9-8.8c-0.4-2.9-0.9-5.8-1.2-8.6c2,7.3,4.2,14.6,6.5,21.8
							c2.3,7.1,4.6,14.3,6.6,20.9l0.2,0.7l0,0.1c0,0-0.1,0-0.1,0l-0.2,0l-0.4,0.1l-1.6,0.2c-1.1,0.1-2.2,0.2-3.2,0.3
							c-2.1,0.1-4.2,0.1-6.2-0.1c0,0-0.5,0-1.2,0.1c-0.8,0-1.9,0.1-3.1,0c-2.5,0-5.7-0.2-7.8-0.4c-6.1-1.2-5.7-1.8-6.9-2.5
							c-4.2-0.7-8.4-1.6-12.7-2.5c4.4,1.4,13.5,4.1,21.8,5.5c2.1,0.4,4.1,0.6,5.9,0.8c1.9,0.2,3.6,0.3,5.1,0.3c1.5,0,2.7,0,3.6,0
							C747.4,340.9,747.9,340.9,747.9,340.9z"/>
						<path d="M734.5,292.1c0.9-1.2,1.8-2.6,2.8-4.1c1-1.5,2-3.1,3-4.7c-3.8,6-8,11.7-12.5,17.2c-2.2,2.8-4.6,5.4-6.9,8.1
							c-2.4,2.6-4.9,5.1-7.5,7.5c3.1-2.2,6.7-5.6,10.3-9.8C727.3,302.1,731,297.2,734.5,292.1z"/>
					</g>
				</g>
			</g>
		</g>
	</g>
</g>
<g>
	<g>
		<g>
			<g>
				<g class="st0">
					<g>
						<path d="M416.7,543.7c-4.5-0.6-9-1-13.5-1.3c2.3,0.3,4.5,0.6,6.8,1.2C412.9,544.1,414.4,543.8,416.7,543.7z"/>
						<path d="M390.7,541.8c-0.8,0-1.6-0.1-2.4-0.1c-0.7,0-1.4,0.1-2.1,0.1C387.7,541.8,389.2,541.8,390.7,541.8z"/>
						<path d="M367.3,542c4.1,0.1,8.1,0.1,11.9,0C375.8,541.8,371.9,541.8,367.3,542z"/>
						<path d="M385.9,542.6c-1.4-0.3-2.1-0.6,0.2-0.8c0,0,0.1,0,0.1,0c-2.3,0.1-4.7,0.1-7.1,0.2C381.7,542.1,384,542.4,385.9,542.6z
							"/>
						<path d="M385.9,542.6c1.4,0.3,3.6,0.6,4.3,0.8C389,543.1,387.5,542.9,385.9,542.6z"/>
						<path d="M379.9,549.3c-2.4,0.2-1.8-1.7-6.4-1.3c-10.9,0.5-20.3,1.3-30.8,0.9c-4.8,0.2-12.1-2.5-16.8-2.7
							c-2.8-0.2-6.7-0.5-10.7-0.9c-4-0.4-8.1-0.9-11.4-1.4c-0.8-0.1-1.6-0.2-2.3-0.3c-0.7-0.1-1.3-0.2-1.8-0.3
							c-1.1-0.2-1.8-0.2-2.1-0.2c-0.5,0.1,0.8,0.7,4.9,1.8c12.6,3.1,23.2,4.1,33.4,4.7c10.2,0.5,19.9,0.5,31.1,0.3
							c9.1-0.3,17.9-0.8,26.7-0.9c8.8-0.1,17.7,0,26.7,1.1c1.3,0.2,2.5,0.4,3.7,0.5c1.2,0.2,2.4,0.5,3.6,0.7
							c1.2,0.2,2.4,0.5,3.5,0.8l2.6,0.7c-1.1-0.3-2-0.6-3.7-1.1c-1.5-0.4-3.1-0.7-4.7-1.1c-3.2-0.7-6.5-1.4-10-1.9
							c-4.6-0.8-9.9-0.8-15.8-0.5C393.9,548.6,387.3,549.2,379.9,549.3z"/>
						<path d="M393,581.4c2.2-0.6,6.8-1.8,6.8-1.8c10.5-0.4,21.2-2.8,31.9-5.3c-1.7,0-3.3-0.1-5-0.1c-6.1,1.2-6.8,1.8-1.2,1.3
							c-12.7,1-24.6,2.9-36.8,5.2C389.6,581.1,389.5,581.7,393,581.4z"/>
						<path d="M381.6,582.1c2.4-0.5,4.8-0.9,7.1-1.4c-0.1,0-0.2-0.1-0.3-0.1c-2.4,0.5-4.8,1-7.1,1.5
							C381.5,582.1,381.5,582.1,381.6,582.1z"/>
						<path d="M317.9,540.6c-6.1-1-12.1-2.3-17.9-4.1c-5.8-1.8-11.4-3.8-16.7-6.4c-1.3-0.6-2.6-1.4-3.9-2c-1.3-0.7-2.5-1.4-3.8-2.2
							c-1.2-0.8-2.5-1.5-3.6-2.4c-1.2-0.9-2.3-1.6-3.4-2.5c-2.1-1.8-4.3-3.3-6.1-5.4c-0.9-1-1.7-2.1-2.2-3.3
							c-0.5-1.2-0.8-2.6-0.6-3.9c0.2-1.5,1-2.8,2.1-3.8c1.1-0.9,2.4-1.6,3.7-2c2.7-0.8,5.4-1,8.1-1c1.9-0.4,3.5-0.8,6.4-0.6
							c2.2,0.3,4.5,0.5,6.7,0.6c4.2,0,8.3,0,12.5,0c1.4-0.1,2.9-0.1,4.4-0.2c0,0,0.1,0,0.1,0c2.3-0.2,1.6-0.5,0.2-0.8
							c-1.6-0.2-3.1-0.4-4.4-0.7c0.8,0.2,3,0.4,4.4,0.7c2,0.2,4.2,0.4,6.7,0.5c3.8-0.2,7.8-0.2,11.9-0.2c-4.6,0.3-8.5,0.3-11.9,0.2
							c-2.4,0.1-4.7,0.2-7,0.3c-0.7,0.1-1.3,0.1-2,0.2c9.5,0,19,0.1,28.5,0.1c2.2-0.1,4.3-0.1,6-0.2c6.9-0.3,13.7-0.6,18,0.3
							c1.7,0,3.4,0,5.1,0c-0.3-0.1-0.7-0.1-1-0.2c0.8,0.1,1.4,0.1,1.9,0.2c7.1,0.1,14.3,0.1,21.5,0.2c4.7-0.4,9.5-0.8,14.3-1.1
							c0,0,3.2,0.6,4.8,1c2-0.5,4.7-0.8,8-1c-3.9-0.6-7.4-1.2-10.7-1.6c-4.8-1-10.8,1.9-16.5,0.1c5.7,1.8,11.7-1.1,16.5-0.1
							c3.3,0.4,6.8,1,10.7,1.6c6.8-0.4,15.6,0,22.7,0.9c-8.8,0.8-16.2,0-22.7-0.9c-3.3,0.2-6.1,0.5-8,1c-1.6-0.3-4.8-1-4.8-1
							c-4.8,0.3-9.6,0.7-14.3,1.1c14.1,0.2,28.3,0.3,42.8,0.5c46.7,0.6,91.6,1.3,136.9,1.9c11.3,0.2,22.7,0.4,34.1,0.6
							c11.4,0.2,23.1,0.4,34.9-0.7c11.8-1.1,23.8-3.4,35.2-8.5c5.7-2.6,11.1-5.9,16-9.9c4.9-4,9.4-8.7,13.1-14.1
							c2-2.9,3.7-6.1,5.2-9.3c0.4-0.8,0.6-1.7,1-2.5c0.3-0.8,0.7-1.7,0.9-2.5c0.4-1.7,1-3.4,1.3-5.2l0.5-2.7
							c0.1-0.9,0.1-1.8,0.2-2.7l0.1-1.5c0-0.5,0-1.1,0-1.6c0-1.1-0.1-2.2-0.3-3.3c-0.3-2.2-1-4.3-2.1-6.1c-1.1-1.8-2.8-3.4-4.8-4.3
							c-2-0.9-4.1-1.4-6.4-1.6c-1.8-0.1-3.6-0.3-5.4-0.4c-3.2-0.3-6.4-0.5-9.6-0.8c-3.2-0.3-6.4-0.5-9.6-0.8
							c-3.2-0.2-6.4-0.4-9.6-0.5c-25.5-1.6-50.6-2-75.4-2.2c-49.6-0.3-96.7,2.7-143.9,4.6c-23.6,1-47.2,1.7-71.1,1.8
							c-23.9,0-48-0.7-72.6-2.7c-9.4-0.7-20.9-1.5-33.2-2.6c-12.3-1.1-25.6-2.5-38.6-4.5c-13-2-25.9-4.5-37.5-7.5
							c-11.6-2.9-22-6.4-30.2-9.4c-2.8-0.9-5.4-1.7-7.7-2.4c-2.3-0.8-4.4-1.4-6.2-2c-3.8-1-6.6-1.9-8.8-2.3c-4.4-0.8-6.3-0.3-6.6,1
							c-0.7,2.4,4.5,7.5,5.5,8.2c1.5,1.3,3,2.4,4.6,3.5c1.6,1.1,3.1,2.1,4.7,3.2c1.6,1,3.2,1.9,4.9,2.8c1.6,0.9,3.3,1.8,5,2.6
							c1.7,0.9,3.5,1.6,5.2,2.4c1.8,0.8,3.6,1.5,5.5,2.3c3.8,1.4,7.7,2.8,11.9,4.2c17,5.2,38.1,10.2,69.1,15.6
							c-5.3-0.8-8.7-1.6-10.7-2.1c-1.9-0.5-2.3-0.8-1.5-1c0.8-0.1,2.8-0.1,5.8,0.1c3,0.2,6.9,0.5,11.4,0.9c9,0.8,20.7,1.8,32.5,2.8
							c11.8,1.1,23.9,2,33.9,3.4c14.5,2,30.5,3.1,47.6,3.3c17,0.2,35-0.4,53.4-1.3c36.7-1.8,74.9-5,110.3-5.6
							c8.9-0.1,18-0.5,27.5-0.8c4.8-0.2,9.7-0.3,14.7-0.5c5-0.1,10.1-0.2,15.4-0.3c3.4,0,6.8,0,10.2,0c3.4,0.1,6.8,0.1,10.2,0.2
							c6.8,0.1,13.5,0.1,20.2,0.3c6.7,0.2,13.4,0.3,20.1,0.5c6.7,0.3,13.3,0.6,19.9,0.9c1.7,0.1,3.3,0.1,5,0.3l5,0.3l9.9,0.6l5,0.3
							l0.8,0c0.1,0,0,0,0,0l0,0c0,0,0.1,0,0.1,0c0,0,0,0,0,0c0,0,0,0.1,0,0.2l0,0.3l0,0.9l0,0.9l-0.1,0.9l-0.3,1.8
							c-0.1,0.6-0.3,1.2-0.4,1.8c-0.2,1.2-0.7,2.3-1.1,3.5c-0.2,0.6-0.5,1.2-0.7,1.7l-0.8,1.7l-0.9,1.7l-0.5,0.8
							c-0.2,0.3-0.4,0.5-0.5,0.8l-1.1,1.6c-0.3,0.6-0.8,1.1-1.2,1.6c-0.4,0.5-0.8,1.1-1.2,1.6l-1.3,1.5c-3.6,4.1-8.1,7.6-12.9,10.4
							c-2.4,1.5-5,2.7-7.5,3.8c-2.7,1.1-5.5,2.1-8.4,2.9c-5.8,1.6-11.9,2.7-18.2,3.4c-6.3,0.7-12.8,1-19.5,1.1
							c-6.7,0.1-13.6,0-20.6,0c-7-0.1-14-0.1-21-0.2c-14.1-0.2-28.4-0.3-42.9-0.5c-30.7-0.2-57.7,1.4-83.5,2.3
							c-18.9,0.3-39.1-0.7-54.4-0.6c-24.1,0.1-44.9,0.8-64.8,1.8c22.2-0.5,38.5-1.1,63.3-1.4c16.5-0.1-11.5,2.5-22.4,3.1
							c-4.7,0.4-12-1.7-16.7-1.2c-10.2,0-19.5,1-30.5,1.6c-4.7,0.5-4.2-1.5-6.5-1.2c-7.5,0.3-14,1-20,1.7c-3,0.3-5.8,0.6-8.4,0.8
							c-1.3,0.1-2.6,0.2-3.9,0.2c-0.8,0-1.6,0-2.3,0c-0.8,0-1.6,0-2.5,0c-4.5,0-8.7,0.6-12.1,2.2c-1.7,0.8-3.3,1.8-4.5,3.2
							c-1.3,1.4-2.1,3.1-2.5,4.8c-0.2,0.8-0.2,1.4-0.3,2.1c0,2.5,0.8,4.9,2,7.1c1.3,2.2,3,4.3,5.4,6.2c1.5,1.2,2.9,2.4,4.4,3.5
							c0.4,0.3,0.8,0.5,1.2,0.8l1.1,0.7l1.8,1.1c-0.8-0.9-1.2-1.6-1.5-2.2c-0.4-0.7-0.5-1.2-0.7-1.8c0.5,0.4,1,0.7,1.5,1.1
							c0.4,0.3,0.9,0.7,1.4,1c0.5,0.4,0.9,0.7,1.4,1.1c0.5,0.3,1,0.7,1.5,1c1,0.7,2,1.4,3,2.1c1,0.6,2,1.2,2.9,1.7
							c-0.9-0.5-1.9-1.1-2.9-1.7c-1-0.7-2-1.4-3-2.1c-0.5-0.3-1-0.7-1.5-1c-0.5-0.4-1-0.7-1.4-1.1c-0.5-0.4-0.9-0.7-1.4-1
							c-0.5-0.4-1-0.8-1.5-1.1c0.1,0.5,0.3,1.1,0.7,1.8c0.3,0.6,0.7,1.3,1.5,2.2c4.5,2.6,9.2,5.1,14.3,7c2.5,1.1,5.1,1.9,7.7,2.8
							c2.6,0.8,5.3,1.6,8,2.2c2.7,0.7,5.4,1.2,8.1,1.8c1.4,0.3,2.7,0.5,4.1,0.7l2,0.3l2,0.3c5.4,0.8,10.8,1.2,16.1,1.5
							c-0.1-0.1-0.2-0.1-0.3-0.2c-6.2-0.5-12.3-1.3-18.3-2.7c-6.1-1.3-12.1-3.2-17.9-5.9c2.5,1.1,3.7,1.7,3.3,1.8
							c-0.2,0.1-0.7,0-1.5-0.2c-0.8-0.2-2-0.6-3.6-1.1c-1.5-0.8-2.8-1.8-4.2-2.6c5.2,1.9,10.5,3.2,15.8,4.5c5.2,1.4,10.4,2.5,15.5,4
							c0,0,1.2,0.1,2.7,0.1c1.5,0.1,3.2,0.1,4.4,0.1c3.4,0.7,3.2,1.2,3.9,1.8c2.4,0.2,4.8,0.4,7.3,0.4c-1.3-0.3-3.2-0.7-5.4-1.2
							c-2.2-0.4-4.7-0.9-7-1.4c-2.3-0.5-4.4-1-6-1.3c-0.8-0.2-1.4-0.3-1.8-0.5C318.2,540.7,317.9,540.6,317.9,540.6z"/>
						<path d="M311.1,501.2c-1.7,0.1-3.7,0.1-5.9,0.2c8,0,15.9,0.1,23.9,0.1C324.8,500.6,317.9,500.9,311.1,501.2z"/>
					</g>
				</g>
			</g>
		</g>
	</g>
</g>
</svg>
